<svg width="1427" height="567" viewBox="0 0 1427 567" fill="none" xmlns="http://www.w3.org/2000/svg">
<rect x="76.3966" y="2.11325" width="195.87" height="97.9885" rx="10.5" transform="rotate(40 76.3966 2.11325)" stroke="#A5A5A5" stroke-width="3"/>
<rect x="87.6939" y="168.098" width="195.87" height="97.9885" rx="10.5" transform="rotate(40 87.6939 168.098)" stroke="#A5A5A5" stroke-width="3"/>
<rect x="65.9681" y="354.07" width="195.87" height="97.9885" rx="10.5" transform="rotate(40 65.9681 354.07)" stroke="#A5A5A5" stroke-width="3"/>
<rect x="829.099" y="49.1132" width="195.87" height="97.9885" rx="10.5" transform="rotate(40 829.099 49.1132)" stroke="#A5A5A5" stroke-width="3"/>
<rect x="22.1008" y="152.239" width="195.975" height="97.8691" rx="10.5" transform="rotate(-50 22.1008 152.239)" stroke="#D5CFCF" stroke-width="3"/>
<rect x="918.113" y="183.239" width="195.975" height="97.8691" rx="10.5" transform="rotate(-50 918.113 183.239)" stroke="#D5CFCF" stroke-width="3"/>
<rect x="2.11325" y="349.508" width="195.975" height="97.8691" rx="10.5" transform="rotate(-50 2.11325 349.508)" stroke="#D5CFCF" stroke-width="3"/>
<rect x="-0.184885" y="2.11325" width="195.87" height="97.9885" rx="10.5" transform="matrix(-0.766044 0.642788 0.642788 0.766044 1349.1 9.61325)" stroke="#A5A5A5" stroke-width="3"/>
<rect x="-0.184885" y="2.11325" width="195.87" height="97.9885" rx="10.5" transform="matrix(-0.766044 0.642788 0.642788 0.766044 1337.81 175.598)" stroke="#A5A5A5" stroke-width="3"/>
<rect x="-2.11325" y="-0.184885" width="195.87" height="97.9885" rx="10.5" transform="matrix(-0.642788 -0.766044 -0.766044 0.642788 1322.58 167.479)" stroke="#A5A5A5" stroke-width="3"/>
<rect x="-0.184885" y="-2.11325" width="195.87" height="97.9885" rx="10.5" transform="matrix(0.642788 -0.766044 -0.766044 -0.642788 282.677 423.644)" stroke="#A5A5A5" stroke-width="3"/>
<rect x="-0.184885" y="2.11325" width="195.87" height="97.9885" rx="10.5" transform="matrix(-0.766044 0.642788 0.642788 0.766044 1359.53 361.57)" stroke="#A5A5A5" stroke-width="3"/>
<rect x="-2.11325" y="-0.184885" width="195.975" height="97.8691" rx="10.5" transform="matrix(-0.642788 -0.766044 -0.766044 0.642788 1403.4 159.739)" stroke="#D5CFCF" stroke-width="3"/>
<rect x="-2.11325" y="-0.184885" width="195.975" height="97.8691" rx="10.5" transform="matrix(-0.642788 -0.766044 -0.766044 0.642788 670.555 262.739)" stroke="#D5CFCF" stroke-width="3"/>
<rect x="-2.11325" y="-0.184885" width="195.975" height="97.8691" rx="10.5" transform="matrix(-0.642788 -0.766044 -0.766044 0.642788 1423.39 357.008)" stroke="#D5CFCF" stroke-width="3"/>
<rect x="-2.11325" y="-0.184885" width="195.975" height="97.8691" rx="10.5" transform="matrix(-0.642788 -0.766044 -0.766044 0.642788 529.555 177.739)" stroke="#D5CFCF" stroke-width="3"/>
</svg>
