<svg width="1427" height="775" viewBox="0 0 1427 775" fill="none" xmlns="http://www.w3.org/2000/svg">
<rect x="97.0989" y="17.1132" width="195.87" height="97.9885" rx="10.5" transform="rotate(40 97.0989 17.1132)" stroke="#A5A5A5" stroke-width="3"/>
<rect x="1220.35" y="2.54084" width="195.87" height="97.9885" rx="10.5" transform="rotate(49 1220.35 2.54084)" stroke="#A5A5A5" stroke-width="3"/>
<rect x="87.6939" y="376.098" width="195.87" height="97.9885" rx="10.5" transform="rotate(40 87.6939 376.098)" stroke="#A5A5A5" stroke-width="3"/>
<rect x="102.921" y="367.979" width="195.87" height="97.9885" rx="10.5" transform="rotate(-50 102.921 367.979)" stroke="#A5A5A5" stroke-width="3"/>
<rect x="65.9681" y="562.07" width="195.87" height="97.9885" rx="10.5" transform="rotate(40 65.9681 562.07)" stroke="#A5A5A5" stroke-width="3"/>
<rect x="829.099" y="257.113" width="195.87" height="97.9885" rx="10.5" transform="rotate(40 829.099 257.113)" stroke="#A5A5A5" stroke-width="3"/>
<rect x="1077.1" y="537.113" width="195.87" height="97.9885" rx="10.5" transform="rotate(40 1077.1 537.113)" stroke="#A5A5A5" stroke-width="3"/>
<rect x="22.1008" y="360.239" width="195.975" height="97.8691" rx="10.5" transform="rotate(-50 22.1008 360.239)" stroke="#D5CFCF" stroke-width="3"/>
<rect x="30.1132" y="270.239" width="195.975" height="97.8691" rx="10.5" transform="rotate(-50 30.1132 270.239)" stroke="#D5CFCF" stroke-width="3"/>
<rect x="918.113" y="391.239" width="195.975" height="97.8691" rx="10.5" transform="rotate(-50 918.113 391.239)" stroke="#D5CFCF" stroke-width="3"/>
<rect x="2.11325" y="557.508" width="195.975" height="97.8691" rx="10.5" transform="rotate(-50 2.11325 557.508)" stroke="#D5CFCF" stroke-width="3"/>
<rect x="1200.07" y="243.129" width="195.975" height="97.8691" rx="10.5" transform="rotate(-40 1200.07 243.129)" stroke="#D5CFCF" stroke-width="3"/>
<rect x="-0.184885" y="2.11325" width="195.87" height="97.9885" rx="10.5" transform="matrix(-0.766044 0.642788 0.642788 0.766044 1337.81 383.598)" stroke="#A5A5A5" stroke-width="3"/>
<rect x="-2.11325" y="-0.184885" width="195.87" height="97.9885" rx="10.5" transform="matrix(-0.642788 -0.766044 -0.766044 0.642788 1322.58 375.479)" stroke="#A5A5A5" stroke-width="3"/>
<rect x="-0.184885" y="-2.11325" width="195.87" height="97.9885" rx="10.5" transform="matrix(0.642788 -0.766044 -0.766044 -0.642788 282.677 631.644)" stroke="#A5A5A5" stroke-width="3"/>
<rect x="-0.184885" y="2.11325" width="195.87" height="97.9885" rx="10.5" transform="matrix(-0.766044 0.642788 0.642788 0.766044 1359.53 569.57)" stroke="#A5A5A5" stroke-width="3"/>
<rect x="-2.11325" y="-0.184885" width="195.975" height="97.8691" rx="10.5" transform="matrix(-0.642788 -0.766044 -0.766044 0.642788 1403.4 367.739)" stroke="#D5CFCF" stroke-width="3"/>
<rect x="-2.11325" y="-0.184885" width="195.975" height="97.8691" rx="10.5" transform="matrix(-0.642788 -0.766044 -0.766044 0.642788 670.555 470.739)" stroke="#D5CFCF" stroke-width="3"/>
<rect x="-2.11325" y="-0.184885" width="195.975" height="97.8691" rx="10.5" transform="matrix(-0.642788 -0.766044 -0.766044 0.642788 1423.39 565.008)" stroke="#D5CFCF" stroke-width="3"/>
<rect x="-2.11325" y="-0.184885" width="195.975" height="97.8691" rx="10.5" transform="matrix(-0.642788 -0.766044 -0.766044 0.642788 529.555 385.739)" stroke="#D5CFCF" stroke-width="3"/>
</svg>
