<svg width="1420" height="299" viewBox="0 0 1420 299" fill="none" xmlns="http://www.w3.org/2000/svg">
<rect x="23.1132" y="152.158" width="195.87" height="97.9885" rx="10.5" transform="rotate(-50 23.1132 152.158)" stroke="#A5A5A5" stroke-width="3"/>
<rect x="109.113" y="167.158" width="195.87" height="97.9885" rx="10.5" transform="rotate(-50 109.113 167.158)" stroke="#A5A5A5" stroke-width="3"/>
<rect x="2.11325" y="227.238" width="195.975" height="97.8691" rx="10.5" transform="rotate(-50 2.11325 227.238)" stroke="#D5CFCF" stroke-width="3"/>
<rect x="-2.11325" y="0.184885" width="195.975" height="97.8691" rx="10.5" transform="matrix(-0.766044 -0.642788 -0.642788 0.766044 242.648 129.583)" stroke="#D5CFCF" stroke-width="3"/>
<rect x="-2.11325" y="-0.184885" width="195.87" height="97.9885" rx="10.5" transform="matrix(-0.642788 -0.766044 -0.766044 0.642788 1394.58 156.658)" stroke="#A5A5A5" stroke-width="3"/>
<rect x="-2.11325" y="-0.184885" width="195.87" height="97.9885" rx="10.5" transform="matrix(-0.642788 -0.766044 -0.766044 0.642788 1303.58 173.658)" stroke="#A5A5A5" stroke-width="3"/>
<rect x="-2.11325" y="-0.184885" width="195.975" height="97.8691" rx="10.5" transform="matrix(-0.642788 -0.766044 -0.766044 0.642788 1415.58 231.739)" stroke="#D5CFCF" stroke-width="3"/>
<rect x="1175.04" y="137.083" width="195.975" height="97.8691" rx="10.5" transform="rotate(-40 1175.04 137.083)" stroke="#D5CFCF" stroke-width="3"/>
</svg>
