<svg width="342" height="92" viewBox="0 0 342 92" fill="none" xmlns="http://www.w3.org/2000/svg">
<path fill-rule="evenodd" clip-rule="evenodd" d="M152.356 31.8206C147.358 31.8206 142.25 35.8364 140.96 40.8088H193.931C195.236 35.8364 192.231 31.8206 187.233 31.8206H152.356ZM143.313 66.4958H178.204C183.195 66.4958 188.296 62.4799 189.585 57.5075L190.589 53.6523C191.894 48.6799 188.889 44.664 183.884 44.664H139.956C138.667 49.6364 141.657 53.6523 146.655 53.6523H181.546L180.542 57.5075H136.607C135.317 62.4726 138.307 66.4958 143.313 66.4958ZM207.922 31.8206C202.923 31.8206 197.83 35.8364 196.526 40.8088H249.496C250.801 35.8364 247.796 31.8206 242.806 31.8206H207.922ZM198.871 66.4958H233.762C238.76 66.4958 243.854 62.4799 245.158 57.5075L246.162 53.6523C247.452 48.6799 244.447 44.664 239.464 44.664H195.529C194.239 49.6364 197.244 53.6523 202.227 53.6523H237.119L236.115 57.5075H192.18C190.883 62.4726 193.887 66.4958 198.871 66.4958ZM254.443 66.4958H289.32C294.318 66.4958 299.411 62.4799 300.716 57.5075H256.781L263.487 31.8279C258.489 31.8279 253.395 35.8437 252.091 40.8161L247.745 57.5075C246.448 62.4726 249.445 66.4958 254.443 66.4958ZM95.5672 40.8088H129.323L124.962 57.5002H95.5599L86.5457 66.4958H122.632C127.622 66.4958 132.723 62.4799 134.013 57.5075L138.366 40.8161C139.656 35.8437 136.666 31.8279 131.668 31.8279H86.4431L95.5672 40.8088Z" fill="#00305D"/>
<path fill-rule="evenodd" clip-rule="evenodd" d="M64.3255 35.2375L49.5071 49.7969L64.3255 64.3636L79.1658 49.7969L64.3255 35.2375Z" fill="#288731"/>
<path fill-rule="evenodd" clip-rule="evenodd" d="M84.5523 49.1543L75.0105 58.515H81.5842V65.2981L98.0295 49.1543L81.5842 33.0178V39.7937H75.0252L84.5523 49.1543Z" fill="#288731"/>
<path fill-rule="evenodd" clip-rule="evenodd" d="M71.1996 62.2535L64.3327 69.0074L44.1059 49.1544L64.3254 29.3014L71.1922 36.0554H77.766L77.7806 29.2649L69.3821 21.036C66.5972 18.2979 62.0755 18.2979 59.276 21.036L35.678 44.2039C32.8931 46.942 32.8931 51.3814 35.678 54.1195L59.276 77.2801C62.0755 80.0182 66.5972 80.0182 69.3821 77.2801L77.788 69.0366L77.7733 62.2535H71.1996Z" fill="#9DC430"/>
</svg>
