<svg width="241" height="173" viewBox="0 0 241 173" fill="none" xmlns="http://www.w3.org/2000/svg">
<path d="M132.892 107.873V151.852H122.073V107.873H132.892Z" fill="#004211"/>
<path d="M132.892 107.873V151.852H122.073V107.873H132.892Z" fill="#004211"/>
<path d="M132.892 107.873V151.852H122.073V107.873H132.892Z" fill="#292E54"/>
<path d="M162.852 107.873V151.852H152.033V107.873H162.852Z" fill="#004211"/>
<path d="M162.852 107.873V151.852H152.033V107.873H162.852Z" fill="#004211"/>
<path d="M162.852 107.873V151.852H152.033V107.873H162.852Z" fill="#292E54"/>
<path d="M183.657 151.852V171.768H102.1V151.852H183.657Z" fill="#004211"/>
<path d="M183.657 151.852V171.768H102.1V151.852H183.657Z" fill="#004211"/>
<path d="M183.657 151.852V171.768H102.1V151.852H183.657Z" fill="#292E54"/>
<path d="M232.759 0.828064H240.249V107.873H232.759V0.828064Z" fill="#004211"/>
<path d="M232.759 0.828064H240.249V107.873H232.759V0.828064Z" fill="#004211"/>
<path d="M232.759 0.828064H240.249V107.873H232.759V0.828064Z" fill="#292E54"/>
<path d="M48.8372 0.828064H56.3272V107.873H48.8372V0.828064Z" fill="#004211"/>
<path d="M48.8372 0.828064H56.3272V107.873H48.8372V0.828064Z" fill="#004211"/>
<path d="M48.8372 0.828064H56.3272V107.873H48.8372V0.828064Z" fill="#292E54"/>
<path d="M240.249 0.828064V8.2963H48.8372V0.828064H240.249Z" fill="#004211"/>
<path d="M240.249 0.828064V8.2963H48.8372V0.828064H240.249Z" fill="#004211"/>
<path d="M240.249 0.828064V8.2963H48.8372V0.828064H240.249Z" fill="#292E54"/>
<path d="M240.249 100.405V107.873H48.8372V100.405H240.249Z" fill="#004211"/>
<path d="M240.249 100.405V107.873H48.8372V100.405H240.249Z" fill="#004211"/>
<path d="M240.249 100.405V107.873H48.8372V100.405H240.249Z" fill="#292E54"/>
<path d="M6.87009 28.9577H80.5686V166.119H6.87009V28.9577Z" fill="white"/>
<path d="M62.8521 120.204C62.8521 130.449 54.294 138.754 43.7371 138.754C33.1802 138.754 24.6222 130.449 24.6222 120.204C24.6222 109.959 33.1802 101.654 43.7371 101.654C54.294 101.654 62.8521 109.959 62.8521 120.204Z" fill="#004211"/>
<path d="M55.9755 120.476C55.9755 127.194 50.4962 132.64 43.7372 132.64C36.9782 132.64 31.499 127.194 31.499 120.476C31.499 113.758 36.9782 108.312 43.7372 108.312C50.4962 108.312 55.9755 113.758 55.9755 120.476Z" fill="white"/>
<path d="M41.2896 111.092V99.2759H48.9822V111.092H41.2896Z" fill="white"/>
<path d="M41.2896 111.092V99.2759H48.9822V111.092H41.2896Z" fill="white"/>
<path d="M41.2896 111.092V99.2759H48.9822V111.092H41.2896Z" fill="white"/>
<path d="M41.2896 111.092V99.2759H48.9822V111.092H41.2896Z" fill="white"/>
<path d="M41.2896 111.092V99.2759H48.9822V111.092H41.2896Z" fill="white"/>
<path d="M41.2896 111.092V99.2759H48.9822V111.092H41.2896Z" fill="white"/>
<path d="M41.2896 111.092V99.2759H48.9822V111.092H41.2896Z" fill="white"/>
<path d="M41.2896 111.092V99.2759H48.9822V111.092H41.2896Z" fill="white"/>
<path d="M41.2896 111.092V99.2759H48.9822V111.092H41.2896Z" fill="white"/>
<path d="M38.4923 111.092V99.2759H46.1849V111.092H38.4923Z" fill="white"/>
<path d="M38.4923 111.092V99.2759H46.1849V111.092H38.4923Z" fill="white"/>
<path d="M38.4923 111.092V99.2759H46.1849V111.092H38.4923Z" fill="white"/>
<path d="M38.4923 111.092V99.2759H46.1849V111.092H38.4923Z" fill="white"/>
<path d="M38.4923 111.092V99.2759H46.1849V111.092H38.4923Z" fill="white"/>
<path d="M38.4923 111.092V99.2759H46.1849V111.092H38.4923Z" fill="white"/>
<path d="M38.4923 111.092V99.2759H46.1849V111.092H38.4923Z" fill="white"/>
<path d="M38.4923 111.092V99.2759H46.1849V111.092H38.4923Z" fill="white"/>
<path d="M38.4923 111.092V99.2759H46.1849V111.092H38.4923Z" fill="white"/>
<path d="M39.8909 111.092V99.2759H47.5835V111.092H39.8909Z" fill="#004211"/>
<path d="M86.7459 166.005V172.26H1.42784V166.005H86.7459Z" fill="#004211"/>
<path d="M86.7459 166.005V172.26H1.42784V166.005H86.7459Z" fill="#004211"/>
<path d="M86.7459 166.005V172.26H1.42784V166.005H86.7459Z" fill="#004211"/>
<path d="M86.0465 22.816V29.0718H0.728516V22.816H86.0465Z" fill="#004211"/>
<path d="M86.0465 22.816V29.0718H0.728516V22.816H86.0465Z" fill="#004211"/>
<path d="M86.0465 22.816V29.0718H0.728516V22.816H86.0465Z" fill="#004211"/>
<path d="M7.02247 172.26H0.728516V22.816H7.02247V172.26Z" fill="#004211"/>
<path d="M7.02247 172.26H0.728516V22.816H7.02247V172.26Z" fill="#004211"/>
<path d="M7.02247 172.26H0.728516V22.816H7.02247V172.26Z" fill="#004211"/>
<path d="M86.7459 172.26H80.4519V22.816H86.7459V172.26Z" fill="#004211"/>
<path d="M86.7459 172.26H80.4519V22.816H86.7459V172.26Z" fill="#004211"/>
<path d="M86.7459 172.26H80.4519V22.816H86.7459V172.26Z" fill="#004211"/>
<path d="M72.7593 83.9839H14.7151V63.8263H72.7593V83.9839Z" fill="#004211"/>
<path d="M72.7593 83.9839H14.7151V63.8263H72.7593V83.9839Z" fill="#004211"/>
<path d="M72.7593 83.9839H14.7151V63.8263H72.7593V83.9839Z" fill="#004211"/>
<path d="M72.7593 61.046H14.7151V44.3638H72.7593V61.046Z" fill="#004211"/>
<path d="M72.7593 61.046H14.7151V44.3638H72.7593V61.046Z" fill="#004211"/>
<path d="M72.7593 61.046H14.7151V44.3638H72.7593V61.046Z" fill="#004211"/>
</svg>
