<svg width="232" height="71" viewBox="0 0 232 71" fill="none" xmlns="http://www.w3.org/2000/svg">
<g clip-path="url(#clip0_170_157)">
<path d="M0.28833 42.4122V26.9236H2.57139V33.5615H6.20555L13.0514 26.9236H16.2744L8.27951 34.6605L16.2744 42.4122H13.0514L6.20555 35.7743H2.57139V42.4122H0.28833ZM17.4118 37.9833V31.3525C17.4118 30.7478 17.5336 30.1763 17.7732 29.6414C18.0168 29.103 18.344 28.6347 18.7549 28.2365C19.1658 27.8345 19.653 27.5173 20.2086 27.2812C20.7678 27.0416 21.3579 26.9236 21.9819 26.9236H28.8237C29.4327 26.9236 30.0112 27.0416 30.5591 27.2812C31.1031 27.5173 31.5864 27.8345 32.0052 28.2365C32.4274 28.6347 32.7622 29.103 33.0135 29.6414C33.2684 30.1763 33.3941 30.7478 33.3941 31.3525V37.9833C33.3941 38.588 33.2723 39.1595 33.0248 39.7018C32.7815 40.2402 32.4542 40.7085 32.0394 41.1067C31.6282 41.5014 31.1449 41.8185 30.5894 42.0546C30.0378 42.2942 29.448 42.4122 28.8237 42.4122H21.9819C21.3426 42.4122 20.7452 42.298 20.1857 42.0729C19.6301 41.8442 19.1432 41.5309 18.732 41.1325C18.3211 40.7343 17.9976 40.2624 17.7619 39.724C17.5296 39.1817 17.4118 38.6028 17.4118 37.9833ZM19.6948 37.9833C19.6948 38.6028 19.9155 39.1264 20.3569 39.558C20.8023 39.9858 21.3426 40.1997 21.9819 40.1997H28.8237C29.4632 40.1997 30.0036 39.9858 30.4486 39.558C30.89 39.1264 31.1108 38.6028 31.1108 37.9833V31.3525C31.1108 30.733 30.89 30.2094 30.4486 29.7781C30.0036 29.3503 29.4632 29.1364 28.8237 29.1364H21.9819C21.3426 29.1364 20.8023 29.3503 20.3569 29.7781C19.9155 30.2094 19.6948 30.733 19.6948 31.3525V37.9833ZM36.5863 42.4122V26.9236H38.8693L45.7264 36.5044L52.5683 26.9236H54.8517V42.4122H52.5683V30.888L45.7264 40.4689L38.8693 30.888V42.4122H36.5863ZM58.2722 42.4122V26.9236H60.5552L67.4123 36.5044L74.2542 26.9236H76.5376V42.4122H74.2542V30.888L67.4123 40.4689L60.5552 30.888V42.4122H58.2722ZM79.7297 31.349V26.9236H82.0128V31.349C82.0128 31.9684 82.2335 32.4921 82.6749 32.9198C83.1203 33.3476 83.6606 33.5615 84.2998 33.5615H93.4287V26.9236H95.7121V37.9833C95.7121 38.5732 95.5939 39.1374 95.3543 39.6687C95.1183 40.2032 94.7911 40.6715 94.3802 41.0736C93.969 41.4756 93.4858 41.8002 92.9302 42.0433C92.3786 42.2906 91.7812 42.4122 91.1417 42.4122H84.7452C84.1209 42.4122 83.5348 42.298 82.9908 42.0729C82.4429 41.8442 81.9633 41.5309 81.5524 41.1325C81.1376 40.7343 80.8103 40.266 80.5707 39.724C80.3308 39.1856 80.2017 38.6063 80.1864 37.9869H82.4695C82.4695 38.6063 82.6901 39.1303 83.1279 39.558C83.5653 39.9858 84.1057 40.1997 84.7452 40.1997H91.1417C91.7812 40.1997 92.3215 39.9858 92.7666 39.5542C93.208 39.1264 93.4287 38.6028 93.4287 37.9795V35.7743H84.2998C83.6911 35.7743 83.1087 35.6598 82.5494 35.4276C81.9938 35.1989 81.503 34.8856 81.0845 34.491C80.6656 34.0925 80.3347 33.6281 80.0911 33.0858C79.8515 32.5474 79.7297 31.9684 79.7297 31.349ZM99.1249 42.4122V26.9236H101.408V33.5615H112.824V26.9236H115.107V42.4122H112.824V35.7743H101.408V42.4122H99.1249ZM118.528 42.4122V26.9236H120.811V39.2039L132.227 26.9236H134.51V42.4122H132.227V29.9145L120.811 42.4122H118.528ZM137.931 42.4122V26.9236H140.214V33.5615H143.848L150.694 26.9236H153.917L145.922 34.6605L153.917 42.4122H150.694L143.848 35.7743H140.214V42.4122H137.931ZM156.195 42.4122V31.3525C156.195 30.7626 156.313 30.202 156.553 29.671C156.789 29.1438 157.112 28.6752 157.523 28.2696C157.931 27.8602 158.414 27.536 158.969 27.2925C159.529 27.0455 160.126 26.9236 160.765 26.9236H167.607C168.216 26.9236 168.798 27.0381 169.346 27.2703C169.898 27.499 170.378 27.8123 170.785 28.2108C171.192 28.6054 171.523 29.0737 171.778 29.6121C172.029 30.1541 172.162 30.733 172.177 31.3525V42.4122H169.894V37.9869H158.478V42.4122H156.195ZM158.478 35.7743H169.894V31.349C169.894 30.7295 169.674 30.2059 169.232 29.7781C168.787 29.3503 168.247 29.1364 167.607 29.1364H160.765C160.126 29.1364 159.586 29.3503 159.141 29.7781C158.699 30.2059 158.478 30.7295 158.478 31.349V35.7743ZM175.598 42.4122V26.9236H177.881V40.1997H189.297V26.9236H191.58V40.1997H193.864V44.6248H191.58V42.4122H175.598ZM196.371 42.4122V26.9236H198.654V39.2039L210.07 26.9236H212.353V42.4122H210.07V29.9145L198.654 42.4122H196.371ZM215.774 42.4122V26.9236H218.057V39.2039L229.473 26.9236H231.756V42.4122H229.473V29.9145L218.057 42.4122H215.774Z" fill="#3F435C"/>
<path d="M0.28833 15.88V0.391357H16.2704V2.60419H2.57139V7.02927H13.9873V9.2421H2.57139V13.6675H16.2704V15.88H0.28833ZM19.2345 15.88V0.391357H21.5176V13.6675H35.2165V15.88H19.2345ZM31.8104 2.60419V0.391357H47.7699V2.60419H40.9204V15.88H38.637V2.60419H31.8104ZM50.045 15.88V0.391357H66.0271V2.60419H52.3281V7.02927H63.744V9.2421H52.3281V13.6675H66.0271V15.88H50.045ZM68.5345 15.88V12.609L74.6306 8.15787L68.5345 3.71771V0.391357H70.8176V2.60419L76.5257 6.7639L82.2335 2.60419V0.391357H84.5169V3.71771L78.4208 8.15787L84.5169 12.609V15.88H82.2335V13.708L76.5257 9.55184L70.8176 13.708V15.88H68.5345Z" fill="#00ABDF"/>
<path d="M0.284668 61.416C0.284668 59.4028 0.844826 57.8251 1.96209 56.6859C3.07966 55.5463 4.5208 54.978 6.28889 54.978C7.44706 54.978 8.48862 55.2466 9.41936 55.7809C10.3471 56.3155 11.0562 57.0619 11.5434 58.0204C12.0306 58.9759 12.2757 60.0616 12.2757 61.2745C12.2757 62.5046 12.019 63.6072 11.5055 64.5772C10.9921 65.5496 10.2656 66.2848 9.32595 66.7824C8.38361 67.2829 7.3683 67.5317 6.28004 67.5317C5.09836 67.5317 4.0452 67.2548 3.11446 66.7034C2.18676 66.1519 1.48069 65.3999 1.00234 64.4441C0.523689 63.4912 0.284668 62.4818 0.284668 61.416ZM1.99994 61.4444C1.99994 62.9061 2.40564 64.0569 3.21672 64.8967C4.0278 65.7363 5.04586 66.1576 6.27149 66.1576C7.52002 66.1576 8.54417 65.7336 9.3522 64.8852C10.1575 64.037 10.5601 62.8327 10.5601 61.2719C10.5601 60.285 10.388 59.4226 10.0436 58.6875C9.69959 57.9523 9.19469 57.3814 8.53257 56.977C7.8674 56.5726 7.12317 56.369 6.29774 56.369C5.12462 56.369 4.11542 56.7592 3.26923 57.5396C2.42304 58.3201 1.99994 59.6205 1.99994 61.4444ZM19.5025 55.1816H21.0429V59.3889C21.361 59.0354 21.7111 58.7724 22.0933 58.597C22.4724 58.4245 22.8839 58.3369 23.3217 58.3369C24.3953 58.3369 25.2473 58.7724 25.8773 59.6404C26.5046 60.5083 26.8197 61.6 26.8197 62.9173C26.8197 64.2915 26.4811 65.3999 25.8044 66.2451C25.1276 67.0906 24.2845 67.5148 23.2777 67.5148C22.948 67.5148 22.6125 67.464 22.2712 67.3649C21.93 67.2661 21.5215 66.9945 21.0429 66.5534V70.7042H19.5025V66.5534C19.196 66.8729 18.8547 67.1134 18.4814 67.2743C18.1078 67.4356 17.7054 67.5148 17.2704 67.5148C16.3195 67.5148 15.488 67.1104 14.7761 66.3046C14.0642 65.4961 13.7083 64.3397 13.7083 62.8354C13.7083 61.5603 14.0291 60.4944 14.6739 59.6318C15.3189 58.7694 16.1825 58.3369 17.2704 58.3369C17.7286 58.3369 18.1401 58.4245 18.5104 58.597C18.881 58.7724 19.2107 59.0354 19.5025 59.3889V55.1816ZM21.0343 62.9626C21.0343 64.2858 21.2208 65.1736 21.5972 65.6289C21.9709 66.0842 22.4404 66.3102 23.0036 66.3102C23.6278 66.3102 24.1617 66.0304 24.6022 65.4706C25.043 64.9136 25.2616 64.0427 25.2616 62.8638C25.2616 61.7526 25.0574 60.9213 24.652 60.3755C24.2463 59.83 23.7243 59.5584 23.0881 59.5584C22.4056 59.5584 21.8949 59.8412 21.5505 60.4095C21.2065 60.9778 21.0343 61.8289 21.0343 62.9626ZM15.2838 62.7931C15.2838 64.0344 15.4996 64.9278 15.9285 65.4733C16.3574 66.0191 16.8882 66.2934 17.5244 66.2934C18.1896 66.2934 18.6884 66.0218 19.0181 65.4789C19.345 64.9361 19.5114 64.119 19.5114 63.0333C19.5114 61.8742 19.3392 61.0059 18.9918 60.4264C18.6447 59.8468 18.1224 59.5584 17.4221 59.5584C16.7921 59.5584 16.2786 59.8412 15.879 60.4066C15.4822 60.9722 15.2838 61.7665 15.2838 62.7931ZM28.6198 58.5236H30.1602V65.2387L34.4403 58.5236H36.0945V67.3282H34.5541V60.6554L30.2798 67.3282H28.6198V58.5236ZM38.4169 58.5236H39.9573V66.1067H44.2288V58.5236H45.7692V66.1067H46.7671V69.8221H45.5067V67.3282H38.4169V58.5236ZM48.4271 58.5236H49.9675V65.2387L54.2476 58.5236H55.9018V67.3282H54.3614V60.6554L50.0871 67.3282H48.4271V58.5236ZM64.1411 66.2256C63.5691 66.6978 63.0178 67.0285 62.4897 67.2235C61.9616 67.4187 61.3956 67.5148 60.7887 67.5148C59.7908 67.5148 59.0237 67.2803 58.4868 66.8078C57.9501 66.3386 57.6815 65.7363 57.6815 65.0041C57.6815 64.5743 57.7837 64.1814 57.9849 63.8249C58.1891 63.4687 58.4547 63.1859 58.7816 62.9711C59.1113 62.7564 59.4789 62.5922 59.89 62.4818C60.1935 62.4055 60.6517 62.3321 61.2613 62.2585C62.5043 62.1174 63.4235 61.9449 64.0099 61.7467C64.0157 61.5432 64.0184 61.4133 64.0184 61.3595C64.0184 60.7545 63.8725 60.3276 63.581 60.0788C63.1869 59.7421 62.6005 59.5753 61.8245 59.5753C61.098 59.5753 60.5613 59.6998 60.217 59.9457C59.8699 60.1918 59.6159 60.6273 59.4496 61.2547L57.9443 61.0512C58.0814 60.4264 58.306 59.9202 58.6211 59.5359C58.9361 59.1513 59.3912 58.8573 59.9865 58.6478C60.5787 58.4416 61.2701 58.3369 62.0522 58.3369C62.8282 58.3369 63.4613 58.4245 63.9485 58.6029C64.4327 58.781 64.7917 59.0014 65.0194 59.27C65.2468 59.5386 65.4074 59.8779 65.5008 60.2879C65.5502 60.5424 65.5765 61.0003 65.5765 61.6591V63.6382C65.5765 65.021 65.6085 65.8946 65.6726 66.265C65.734 66.6353 65.8625 66.9889 66.049 67.3282H64.4388C64.284 67.0143 64.1848 66.6469 64.1411 66.2256ZM64.0184 62.9173C63.4583 63.138 62.6182 63.3247 61.4979 63.4773C60.8617 63.5649 60.4124 63.6637 60.1498 63.774C59.8873 63.8844 59.6858 64.0456 59.543 64.2548C59.4001 64.4669 59.3271 64.7015 59.3271 64.9615C59.3271 65.3547 59.4816 65.6854 59.7939 65.9484C60.1062 66.2114 60.5613 66.3442 61.1593 66.3442C61.7515 66.3442 62.2796 66.2197 62.7436 65.9682C63.2046 65.7194 63.5459 65.3772 63.7617 64.9447C63.9281 64.6083 64.0099 64.1134 64.0099 63.4602L64.0184 62.9173ZM68.6954 58.5236H75.855V67.3196H74.3143V59.7619H70.2357V64.1418C70.2357 65.1624 70.2006 65.8354 70.1335 66.1632C70.0636 66.4883 69.8767 66.7711 69.5705 67.0143C69.2613 67.2575 68.8178 67.3791 68.2372 67.3791C67.8785 67.3791 67.4639 67.3566 66.9972 67.314V66.0727H67.6712C67.9893 66.0727 68.2167 66.0416 68.3538 65.9768C68.4911 65.9144 68.5815 65.8126 68.6282 65.6742C68.6719 65.5357 68.6954 65.0861 68.6954 64.3255V58.5236ZM78.1219 58.5236H79.6622V61.9674H81.6114C82.8834 61.9674 83.8608 62.2049 84.5492 62.6827C85.2348 63.1605 85.5792 63.8193 85.5792 64.6592C85.5792 65.3943 85.2931 66.0218 84.7186 66.5451C84.1466 67.0681 83.2305 67.3282 81.97 67.3282H78.1219V58.5236ZM79.6622 66.1067H81.2844C82.2619 66.1067 82.9591 65.9907 83.3764 65.7591C83.7937 65.5271 84.0037 65.1653 84.0037 64.6734C84.0037 64.2914 83.8489 63.9521 83.5397 63.6524C83.2305 63.3557 82.5479 63.2057 81.4886 63.2057H79.6622V66.1067ZM87.2773 58.5236H88.8177V62.1878H93.0889V58.5236H94.6296V67.3282H93.0889V63.4264H88.8177V67.3282H87.2773V58.5236ZM105.591 58.5236H107.131V67.3282H105.591V58.5236ZM96.9957 58.5236H98.536V61.9674H100.479C101.748 61.9674 102.723 62.2049 103.408 62.6827C104.094 63.1605 104.435 63.8193 104.435 64.6592C104.435 65.3943 104.15 66.0218 103.578 66.5451C103.006 67.0681 102.093 67.3282 100.835 67.3282H96.9957V58.5236ZM98.536 66.1067H100.152C101.124 66.1067 101.821 65.9907 102.236 65.7591C102.653 65.5271 102.86 65.1653 102.86 64.6734C102.86 64.2914 102.705 63.9521 102.399 63.6524C102.09 63.3557 101.41 63.2057 100.357 63.2057H98.536V66.1067ZM109.526 58.5236H111.067V65.2387L115.347 58.5236H117.001V67.3282H115.461V60.6554L111.186 67.3282H109.526V58.5236ZM114.848 55.2665H115.898C115.814 55.9646 115.551 56.5019 115.113 56.8752C114.676 57.2512 114.095 57.4379 113.369 57.4379C112.64 57.4379 112.056 57.2512 111.621 56.8808C111.186 56.5075 110.924 55.9705 110.839 55.2665H111.889C111.968 55.6481 112.129 55.9336 112.365 56.1202C112.601 56.3096 112.923 56.4031 113.322 56.4031C113.786 56.4031 114.136 56.3125 114.372 56.1288C114.609 55.9478 114.769 55.6593 114.848 55.2665ZM125.378 58.5236H131.714V66.1067H132.695V69.8221H131.434V67.3282H124.275V69.8221H123.014V66.1067H123.819C124.905 64.679 125.424 62.1511 125.378 58.5236ZM126.655 59.7619C126.542 62.6206 126.086 64.7355 125.29 66.1067H130.174V59.7619H126.655ZM134.384 58.5236H135.924V65.2387L140.204 58.5236H141.859V67.3282H140.318V60.6554L136.044 67.3282H134.384V58.5236ZM144.917 58.5236H152.076V67.3196H150.536V59.7619H146.457V64.1418C146.457 65.1624 146.422 65.8354 146.355 66.1632C146.285 66.4883 146.098 66.7711 145.792 67.0143C145.482 67.2575 145.039 67.3791 144.458 67.3791C144.1 67.3791 143.685 67.3566 143.218 67.314V66.0727H143.892C144.21 66.0727 144.438 66.0416 144.575 65.9768C144.712 65.9144 144.803 65.8126 144.849 65.6742C144.893 65.5357 144.917 65.0861 144.917 64.3255V58.5236ZM160.575 64.4781L162.168 64.6817C161.92 65.578 161.456 66.2765 160.779 66.7711C160.102 67.2661 159.239 67.5148 158.185 67.5148C156.861 67.5148 155.811 67.119 155.034 66.3274C154.258 65.5384 153.871 64.4272 153.871 62.9993C153.871 61.5233 154.261 60.3755 155.046 59.5614C155.831 58.744 156.849 58.3369 158.101 58.3369C159.312 58.3369 160.301 58.7357 161.068 59.5359C161.835 60.3359 162.22 61.4612 162.22 62.9117C162.22 62.9993 162.218 63.1324 162.212 63.3075H155.446C155.504 64.2716 155.784 65.0124 156.292 65.5242C156.797 66.036 157.43 66.2934 158.185 66.2934C158.749 66.2934 159.23 66.1493 159.627 65.8608C160.026 65.5724 160.341 65.1115 160.575 64.4781ZM155.534 62.086H160.592C160.525 61.3452 160.33 60.7912 160.012 60.4208C159.525 59.8469 158.889 59.5584 158.11 59.5584C157.404 59.5584 156.811 59.7874 156.33 60.2453C155.851 60.7036 155.586 61.3171 155.534 62.086ZM164.114 70.7042V58.5236H165.514V59.68C165.844 59.2333 166.217 58.8969 166.634 58.6733C167.049 58.4499 167.554 58.3369 168.146 58.3369C168.922 58.3369 169.605 58.5292 170.197 58.9165C170.789 59.301 171.236 59.8468 171.539 60.548C171.84 61.2521 171.991 62.0212 171.991 62.8608C171.991 63.7572 171.825 64.5657 171.492 65.2866C171.16 66.0049 170.676 66.5564 170.039 66.9409C169.406 67.3226 168.738 67.5148 168.038 67.5148C167.524 67.5148 167.063 67.4101 166.658 67.201C166.25 66.9918 165.917 66.7288 165.654 66.4093V70.7042H164.114ZM165.514 62.9797C165.514 64.1077 165.751 64.9417 166.22 65.4819C166.693 66.0218 167.265 66.2934 167.936 66.2934C168.619 66.2934 169.202 66.0135 169.686 65.4535C170.174 64.8938 170.416 64.0285 170.416 62.8552C170.416 61.7354 170.179 60.8985 169.704 60.3415C169.228 59.7847 168.662 59.5075 168.003 59.5075C167.349 59.5075 166.772 59.8043 166.27 60.3953C165.765 60.9891 165.514 61.8488 165.514 62.9797ZM178.941 67.3282V55.1816H187.991V56.6066H180.604V60.3388H187.518V61.7639H180.604V65.9031H188.288V67.3282H178.941ZM190.512 67.3282V55.1816H192.175V65.9031H198.336V67.3282H190.512ZM202.205 67.3282V56.6066H198.074V55.1816H207.999V56.6066H203.868V67.3282H202.205ZM209.747 67.3282V55.1816H218.797V56.6066H211.41V60.3388H218.324V61.7639H211.41V65.9031H219.095V67.3282H209.747ZM220.116 67.3282L224.959 61.0257L220.694 55.1816H222.669L224.953 58.289C225.429 58.9336 225.758 59.4256 225.948 59.7676C226.231 59.3436 226.564 58.891 226.946 58.4132L229.449 55.1816H231.267L226.914 60.955L231.599 67.3282H229.563L226.4 62.9966C226.219 62.7505 226.047 62.5046 225.887 62.2614C225.607 62.6685 225.408 62.9543 225.286 63.1152L222.108 67.3282H220.116Z" fill="#00ABDF"/>
</g>
<defs>
<clipPath id="clip0_170_157">
<rect width="232" height="71" fill="white"/>
</clipPath>
</defs>
</svg>
