<svg width="170" height="151" viewBox="0 0 170 151" fill="none" xmlns="http://www.w3.org/2000/svg">
<path d="M74.6022 94.5583V133.408H65.05V94.5583H74.6022Z" fill="#004211"/>
<path d="M74.6022 94.5583V133.408H65.05V94.5583H74.6022Z" fill="#004211"/>
<path d="M101.054 94.5583V133.408H91.5022V94.5583H101.054Z" fill="#004211"/>
<path d="M101.054 94.5583V133.408H91.5022V94.5583H101.054Z" fill="#004211"/>
<path d="M119.424 133.408V151H47.4152V133.408H119.424Z" fill="#004211"/>
<path d="M119.424 133.408V151H47.4152V133.408H119.424Z" fill="#004211"/>
<path d="M162.776 0H169.389V94.5583H162.776V0Z" fill="#004211"/>
<path d="M162.776 0H169.389V94.5583H162.776V0Z" fill="#004211"/>
<path d="M162.776 0H169.389V94.5583H162.776V0Z" fill="#004211"/>
<path d="M0.38916 0H7.0022V94.5583H0.38916V0Z" fill="#004211"/>
<path d="M0.38916 0H7.0022V94.5583H0.38916V0Z" fill="#004211"/>
<path d="M0.38916 0H7.0022V94.5583H0.38916V0Z" fill="#004211"/>
<path d="M169.389 0V6.59709H0.38916V0H169.389Z" fill="#004211"/>
<path d="M169.389 0V6.59709H0.38916V0H169.389Z" fill="#004211"/>
<path d="M169.389 0V6.59709H0.38916V0H169.389Z" fill="#004211"/>
<path d="M169.389 87.9612V94.5583H0.38916V87.9612H169.389Z" fill="#004211"/>
<path d="M169.389 87.9612V94.5583H0.38916V87.9612H169.389Z" fill="#004211"/>
<path d="M169.389 87.9612V94.5583H0.38916V87.9612H169.389Z" fill="#004211"/>
<path d="M63.2131 43.2476L79.0109 54.2427L98.85 26.0218L76.8065 28.2209L76.4392 22.7233L110.239 19.0583L80.4805 62.3058L64.6826 50.9442L49.2522 73.6675L44.1087 70.3689L63.2131 43.2476Z" fill="#292E54"/>
<path d="M65.7848 54.2427L81.5826 65.2379L101.422 37.017L108.402 27.4879L113.546 19.7913L120.159 54.6092L115.383 55.3422L111.341 34.4515L83.0522 73.301L67.2544 61.9393L55.8652 78.432L50.7218 74.4005L65.7848 54.2427Z" fill="#004211"/>
</svg>
