<svg width="248" height="167" viewBox="0 0 248 167" fill="none" xmlns="http://www.w3.org/2000/svg">
<rect x="2.5" y="2.5" width="243" height="162" rx="17.5" stroke="#004211" stroke-width="5"/>
<path d="M91.9902 78.8607L107.691 56.4375L111.804 59.3176L96.1035 81.7409L91.9902 78.8607Z" fill="#292E54"/>
<path d="M107.694 56.4375L122.481 66.7919L119.837 70.5683L105.049 60.2139L107.694 56.4375Z" fill="#292E54"/>
<path d="M118.839 39.1021L146.964 36.146L147.446 40.7309L119.321 43.6869L118.839 39.1021Z" fill="#292E54"/>
<path d="M98.155 82.8727L109.766 66.291L113.879 69.1711L102.268 85.7528L98.155 82.8727Z" fill="#004211"/>
<path d="M109.768 66.291L124.556 76.6454L121.911 80.4218L107.124 70.0674L109.768 66.291Z" fill="#004211"/>
<path d="M120.513 79.4569L150.034 37.2971L153.81 39.9413L124.29 82.1012L120.513 79.4569Z" fill="#004211"/>
<path d="M151.322 66.5756L146.963 41.8506L151.598 41.0333L155.958 65.7582L151.322 66.5756Z" fill="#004211"/>
<path d="M147.505 35.6274L149.781 37.1054L145.09 44.3296L142.814 42.8517L147.505 35.6274Z" fill="white"/>
<path d="M153.649 36.146L150.074 36.7764L156.847 75.1886L160.422 74.5582L153.649 36.146Z" fill="white"/>
<path d="M117.267 95.8301V133.437H109.253V95.8301H117.267Z" fill="#004211"/>
<path d="M117.267 95.8301V133.437H109.253V95.8301H117.267Z" fill="#004211"/>
<path d="M139.461 97.6796V135.286H131.447V97.6796H139.461Z" fill="#004211"/>
<path d="M139.461 97.6796V135.286H131.447V97.6796H139.461Z" fill="#004211"/>
<path d="M154.874 132.204V147H94.4563V132.204H154.874Z" fill="#004211"/>
<path d="M154.874 132.204V147H94.4563V132.204H154.874Z" fill="#004211"/>
<path d="M118.439 69.6034L140.23 38.4824L144.007 41.1267L122.216 72.2477L118.439 69.6034Z" fill="#292E54"/>
<path d="M55 20H61V100H55V20Z" fill="#004211"/>
<path d="M55 20H61V100H55V20Z" fill="#004211"/>
<path d="M55 20H61V100H55V20Z" fill="#004211"/>
<path d="M191 20H197V100H191V20Z" fill="#004211"/>
<path d="M191 20H197V100H191V20Z" fill="#004211"/>
<path d="M191 20H197V100H191V20Z" fill="#004211"/>
<path d="M197 20V26H55V20H197Z" fill="#004211"/>
<path d="M197 20V26H55V20H197Z" fill="#004211"/>
<path d="M197 20V26H55V20H197Z" fill="#004211"/>
<path d="M197 94V100H55V94H197Z" fill="#004211"/>
<path d="M197 94V100H55V94H197Z" fill="#004211"/>
<path d="M197 94V100H55V94H197Z" fill="#004211"/>
</svg>
