<svg width="170" height="152" viewBox="0 0 170 152" fill="none" xmlns="http://www.w3.org/2000/svg">
<path d="M10.1174 9.57004H159.557V97.1728H10.1174V9.57004Z" fill="#292E54"/>
<path d="M10.1174 9.57004L158.821 9.57004V97.1728H10.1174V9.57004Z" fill="#292E54"/>
<path d="M78.58 108.951H90.3586V134.717H78.58V108.951Z" fill="#004211"/>
<path d="M59.0719 128.091H75.6354V137.661H93.3032V128.091H110.971L122.381 151.648H47.6614L59.0719 128.091Z" fill="#004211"/>
<path d="M0.547363 0H6.43662V106.743H0.547363V0Z" fill="#004211"/>
<path d="M163.238 0H169.127V106.743H163.238V0Z" fill="#004211"/>
<path d="M166.919 0V5.88926H3.49199V0H166.919Z" fill="#004211"/>
<path d="M166.919 100.854V106.743H3.49199V100.854H166.919Z" fill="#004211"/>
<path d="M42.5554 29.9587H57.5377C59.6579 29.9587 61.354 30.0058 62.626 30.1C63.9452 30.1942 65.3351 30.4062 66.7956 30.736C68.3033 31.0658 69.5047 31.5605 70.3999 32.2201C71.3421 32.8797 72.1431 33.7749 72.8027 34.9056C73.4152 35.9893 73.7214 37.3556 73.7214 39.0046V48.5452C73.7214 52.3614 72.2373 55.1176 69.2691 56.8137C66.3481 58.4627 62.0136 59.2872 56.2656 59.2872H49.4105V75.8242H42.5554V29.9587ZM57.1844 54.9762C60.1525 54.9762 62.5318 54.4344 64.3221 53.3508C66.1125 52.2672 67.0076 50.5475 67.0076 48.1918V39.8526C67.0076 38.5805 66.6778 37.544 66.0182 36.7431C65.3587 35.895 64.4164 35.3061 63.1914 34.9763C62.0136 34.6936 61.0242 34.5052 60.2232 34.4109C59.4223 34.3167 58.3622 34.2696 57.043 34.2696H49.3399V54.9762H57.1844Z" fill="white"/>
<path d="M107.948 31.5841C120.999 31.5841 127.454 35.9657 127.312 44.7289L127.171 58.6511C127.312 62.7972 125.757 65.9067 122.507 67.9797C119.303 70.0527 114.45 71.0892 107.948 71.0892V77.2376H101.093V71.0892C88.0897 71.0892 81.588 66.9432 81.588 58.6511V44.7289C81.588 35.9657 88.0897 31.5841 101.093 31.5841V26.4251H107.948V31.5841ZM88.1604 58.5804C88.1604 63.8572 92.4713 66.4956 101.093 66.4956V36.0364C96.9472 36.0364 93.7434 36.6724 91.4819 37.9445C89.2676 39.2166 88.1604 41.4074 88.1604 44.5169V58.5804ZM107.948 66.4956C116.57 66.4956 120.881 63.8572 120.881 58.5804L120.81 44.5169C120.858 41.4074 119.75 39.2166 117.489 37.9445C115.275 36.6724 112.094 36.0364 107.948 36.0364V66.4956Z" fill="white"/>
</svg>
