<svg width="219" height="91" viewBox="0 0 219 91" fill="none" xmlns="http://www.w3.org/2000/svg">
<path d="M108.465 52.0833V34.8033H110.085L116.877 49.3353L123.633 34.8033H125.277V52.0713H123.597V38.7393L117.441 52.0833H116.301L110.157 38.7393V52.0833H108.465ZM134.057 52.4433C132.769 52.4433 131.669 52.1513 130.757 51.5673C129.845 50.9833 129.145 50.1753 128.657 49.1433C128.169 48.1113 127.925 46.9273 127.925 45.5913C127.925 44.2313 128.173 43.0393 128.669 42.0153C129.165 40.9913 129.869 40.1953 130.781 39.6273C131.701 39.0513 132.793 38.7633 134.057 38.7633C135.353 38.7633 136.457 39.0553 137.369 39.6393C138.289 40.2153 138.989 41.0193 139.469 42.0513C139.957 43.0753 140.201 44.2553 140.201 45.5913C140.201 46.9513 139.957 48.1473 139.469 49.1793C138.981 50.2033 138.277 51.0033 137.357 51.5793C136.437 52.1553 135.337 52.4433 134.057 52.4433ZM134.057 50.7513C135.497 50.7513 136.569 50.2753 137.273 49.3233C137.977 48.3633 138.329 47.1193 138.329 45.5913C138.329 44.0233 137.973 42.7753 137.261 41.8473C136.557 40.9193 135.489 40.4553 134.057 40.4553C133.089 40.4553 132.289 40.6753 131.657 41.1153C131.033 41.5473 130.565 42.1513 130.253 42.9273C129.949 43.6953 129.797 44.5833 129.797 45.5913C129.797 47.1513 130.157 48.4033 130.877 49.3473C131.597 50.2833 132.657 50.7513 134.057 50.7513ZM148.224 37.5873C147.656 37.5873 147.136 37.4473 146.664 37.1673C146.192 36.8873 145.816 36.5153 145.536 36.0513C145.264 35.5793 145.128 35.0593 145.128 34.4913H146.592C146.592 34.9393 146.752 35.3233 147.072 35.6433C147.392 35.9633 147.776 36.1233 148.224 36.1233C148.68 36.1233 149.064 35.9633 149.376 35.6433C149.696 35.3233 149.856 34.9393 149.856 34.4913H151.32C151.32 35.0593 151.18 35.5793 150.9 36.0513C150.628 36.5153 150.256 36.8873 149.784 37.1673C149.312 37.4473 148.792 37.5873 148.224 37.5873ZM153.144 39.1233V52.0833H151.428V41.9913L144.324 52.0833H142.836V39.1233H144.552V49.1313L151.668 39.1233H153.144ZM166.729 52.4433C165.441 52.4433 164.341 52.1513 163.429 51.5673C162.517 50.9833 161.817 50.1753 161.329 49.1433C160.841 48.1113 160.597 46.9273 160.597 45.5913C160.597 44.2313 160.845 43.0393 161.341 42.0153C161.837 40.9913 162.541 40.1953 163.453 39.6273C164.373 39.0513 165.465 38.7633 166.729 38.7633C168.025 38.7633 169.129 39.0553 170.041 39.6393C170.961 40.2153 171.661 41.0193 172.141 42.0513C172.629 43.0753 172.873 44.2553 172.873 45.5913C172.873 46.9513 172.629 48.1473 172.141 49.1793C171.653 50.2033 170.949 51.0033 170.029 51.5793C169.109 52.1553 168.009 52.4433 166.729 52.4433ZM166.729 50.7513C168.169 50.7513 169.241 50.2753 169.945 49.3233C170.649 48.3633 171.001 47.1193 171.001 45.5913C171.001 44.0233 170.645 42.7753 169.933 41.8473C169.229 40.9193 168.161 40.4553 166.729 40.4553C165.761 40.4553 164.961 40.6753 164.329 41.1153C163.705 41.5473 163.237 42.1513 162.925 42.9273C162.621 43.6953 162.469 44.5833 162.469 45.5913C162.469 47.1513 162.829 48.4033 163.549 49.3473C164.269 50.2833 165.329 50.7513 166.729 50.7513ZM181.664 57.4833V52.3353C180.4 52.5353 179.248 52.3993 178.208 51.9273C177.168 51.4473 176.34 50.6713 175.724 49.5993C175.108 48.5273 174.8 47.1993 174.8 45.6153C174.8 44.0313 175.108 42.7033 175.724 41.6313C176.34 40.5513 177.168 39.7713 178.208 39.2913C179.248 38.8113 180.4 38.6713 181.664 38.8713V34.8993H183.296V38.8713C184.56 38.6713 185.712 38.8113 186.752 39.2913C187.792 39.7713 188.62 40.5513 189.236 41.6313C189.852 42.7033 190.16 44.0313 190.16 45.6153C190.16 47.1993 189.852 48.5273 189.236 49.5993C188.62 50.6713 187.792 51.4473 186.752 51.9273C185.712 52.3993 184.56 52.5353 183.296 52.3353V57.4833H181.664ZM181.664 50.6913V40.5273C181.016 40.4153 180.392 40.4353 179.792 40.5873C179.192 40.7313 178.652 41.0153 178.172 41.4393C177.692 41.8553 177.312 42.4113 177.032 43.1073C176.76 43.7953 176.624 44.6313 176.624 45.6153C176.624 46.5993 176.764 47.4393 177.044 48.1353C177.324 48.8233 177.704 49.3753 178.184 49.7913C178.664 50.2073 179.204 50.4873 179.804 50.6313C180.404 50.7753 181.024 50.7953 181.664 50.6913ZM183.296 50.6913C183.936 50.7953 184.556 50.7753 185.156 50.6313C185.756 50.4873 186.296 50.2113 186.776 49.8033C187.256 49.3873 187.636 48.8353 187.916 48.1473C188.196 47.4513 188.336 46.6073 188.336 45.6153C188.336 44.6233 188.196 43.7833 187.916 43.0953C187.644 42.3993 187.268 41.8433 186.788 41.4273C186.308 41.0113 185.768 40.7313 185.168 40.5873C184.568 40.4353 183.944 40.4153 183.296 40.5273V50.6913ZM203.089 39.1233V52.0833H201.373V41.9913L194.269 52.0833H192.781V39.1233H194.497V49.1313L201.613 39.1233H203.089ZM211.833 52.4433C210.529 52.4433 209.425 52.1513 208.521 51.5673C207.617 50.9833 206.929 50.1793 206.457 49.1553C205.993 48.1233 205.753 46.9393 205.737 45.6033C205.753 44.2433 206.001 43.0513 206.481 42.0273C206.961 40.9953 207.653 40.1953 208.557 39.6273C209.461 39.0513 210.557 38.7633 211.845 38.7633C213.157 38.7633 214.297 39.0833 215.265 39.7233C216.241 40.3633 216.909 41.2393 217.269 42.3513L215.541 42.9033C215.237 42.1273 214.753 41.5273 214.089 41.1033C213.433 40.6713 212.681 40.4553 211.833 40.4553C210.881 40.4553 210.093 40.6753 209.469 41.1153C208.845 41.5473 208.381 42.1513 208.077 42.9273C207.773 43.7033 207.617 44.5953 207.609 45.6033C207.625 47.1553 207.985 48.4033 208.689 49.3473C209.393 50.2833 210.441 50.7513 211.833 50.7513C212.713 50.7513 213.461 50.5513 214.077 50.1513C214.701 49.7433 215.173 49.1513 215.493 48.3753L217.269 48.9033C216.789 50.0553 216.085 50.9353 215.157 51.5433C214.229 52.1433 213.121 52.4433 211.833 52.4433Z" fill="black"/>
<g clip-path="url(#clip0_174_223)">
<path d="M77.3513 0.630371H25.9124L45.2987 20.0331C45.7346 20.0075 46.1733 19.9948 46.6152 19.9948C51.0306 19.9927 55.3589 21.2234 59.1133 23.5483C62.8676 25.8729 65.8988 29.1998 67.8655 33.1541C68.2442 33.1291 68.6275 33.1157 69.0131 33.1157C72.1982 33.1164 75.3196 34.0079 78.0247 35.6899C80.7299 37.3715 82.9109 39.7766 84.3215 42.6332L90.4079 36.5451V14.369C90.349 10.8589 88.9744 7.49882 86.5565 4.95436C84.1382 2.40994 80.853 0.86671 77.3513 0.630371Z" fill="#00B4FF"/>
<path d="M84.3346 42.6311L59.5923 67.387L81.4063 89.2068C84.028 88.2161 86.2905 86.4581 87.8991 84.1624C89.5073 81.8666 90.3871 79.1395 90.4231 76.3361V36.5342L84.3346 42.6311Z" fill="#FF6E6E"/>
<path d="M10.8018 59.3413C10.1425 57.7225 9.80482 55.9908 9.80771 54.2431C9.80771 46.9802 15.5176 41.093 22.5597 41.093C22.7244 41.093 22.8866 41.093 23.0489 41.1043C23.6669 35.5239 26.2438 30.344 30.3211 26.4858C34.3984 22.6274 39.7119 20.3409 45.316 20.0329L25.93 0.641357H14.0163C10.4728 0.867281 7.1484 2.43513 4.71955 5.02589C2.29069 7.61668 0.939866 11.0357 0.941897 14.5875V69.2062L10.8018 59.3413Z" fill="#23D3FF"/>
<path d="M59.5761 67.3889H22.5597C20.635 67.3908 18.7363 66.9438 17.0144 66.0835C14.1954 64.6621 11.9878 62.2657 10.8018 59.3391L0.941895 69.2063V76.1309C0.941895 79.8387 2.41437 83.3943 5.03539 86.0161C6.3332 87.3143 7.87392 88.3441 9.56958 89.0467C11.2652 89.7493 13.0826 90.1108 14.918 90.1108H76.4511C78.1399 90.11 79.8145 89.8044 81.3948 89.2088L59.5761 67.3889Z" fill="#00F5D0"/>
<path d="M90.3533 14.369C90.2947 10.8558 88.9181 7.49302 86.4961 4.94803C84.0742 2.40304 80.784 0.861866 77.279 0.630371H13.9355C10.3931 0.859452 7.07059 2.42827 4.6424 5.01836C2.21419 7.60844 0.862278 11.0257 0.861084 14.5765V76.1331C0.861084 79.8408 2.33357 83.3967 4.95461 86.0184C7.57562 88.6402 11.1305 90.1131 14.8372 90.1131H76.3773C78.0659 90.1124 79.7406 89.8069 81.3206 89.2112H81.3365C83.9584 88.2207 86.2212 86.4631 87.8295 84.167C89.438 81.8712 90.3176 79.1439 90.3533 76.3405V36.9961V14.369Z" fill="url(#paint0_radial_174_223)"/>
<path d="M84.3894 42.6616C82.9788 39.8052 80.7978 37.4 78.0925 35.7181C75.3875 34.0365 72.2661 33.1446 69.081 33.1439C68.6954 33.1439 68.3144 33.1575 67.9358 33.1823C65.9684 29.228 62.9367 25.9015 59.182 23.5767C55.4275 21.252 51.0987 20.0213 46.683 20.0232C46.2322 20.0232 45.8039 20.0368 45.3666 20.0616C39.7621 20.3696 34.4487 22.6561 30.3715 26.5145C26.2942 30.3729 23.7174 35.5527 23.0995 41.1329C22.9371 41.1329 22.7748 41.1217 22.6103 41.1217C15.5681 41.1217 9.85817 47.0091 9.85817 54.2718C9.85531 56.0197 10.193 57.7513 10.8523 59.3699C12.0383 62.2964 14.2459 64.6928 17.0649 66.114C18.7867 66.9746 20.6854 67.4215 22.6103 67.4196H59.647L84.3914 42.6639L84.3894 42.6616Z" fill="white"/>
<path fill-rule="evenodd" clip-rule="evenodd" d="M76.7625 40.9495C79.4148 40.911 82.0396 41.494 84.4266 42.652L59.6731 67.4077V57.2767H59.6957C59.8936 52.8814 61.7778 48.7316 64.9566 45.6906C68.1353 42.6495 72.3638 40.9514 76.7625 40.9495Z" fill="#FFD12F"/>
</g>
<defs>
<radialGradient id="paint0_radial_174_223" cx="0" cy="0" r="1" gradientUnits="userSpaceOnUse" gradientTransform="translate(45.6072 45.3729) scale(44.7371 44.7491)">
<stop stop-color="#261C38" stop-opacity="0.6"/>
<stop offset="0.28" stop-color="#261C38" stop-opacity="0.3"/>
<stop offset="0.86" stop-color="#302640" stop-opacity="0.05"/>
<stop offset="1" stop-color="#302640" stop-opacity="0"/>
</radialGradient>
<clipPath id="clip0_174_223">
<rect width="91.2841" height="89.4827" fill="white" transform="translate(0 0.630371)"/>
</clipPath>
</defs>
</svg>
