<svg width="266" height="66" viewBox="0 0 266 66" fill="none" xmlns="http://www.w3.org/2000/svg">
<path d="M82.3228 7.24976H89.5329V16.6317H90.8439L98.7096 7.24976H107.231L96.4154 19.2898L107.722 32.1116H98.8735L90.8439 22.5735H89.5329V32.1116H82.3228V7.24976Z" fill="black"/>
<path d="M106.739 19.6026C106.739 12.4097 112.802 6.62427 120.668 6.62427C128.697 6.62427 134.597 12.2534 134.597 19.4461C134.597 26.4826 128.534 32.268 120.668 32.268C112.638 32.4244 106.739 26.7952 106.739 19.6026ZM127.386 19.6026C127.386 15.8497 124.765 12.8788 120.832 12.8788C116.899 12.8788 114.277 15.8497 114.277 19.4461C114.277 23.0425 116.899 26.1697 120.996 26.1697C124.765 26.3261 127.386 23.1989 127.386 19.6026Z" fill="black"/>
<path d="M138.857 25.8572L147.378 7.09351H155.244L163.765 25.8572H167.043V37.2717H160.324V31.9554H142.299V37.2717H135.744V25.8572H138.857ZM146.231 26.1699H156.227L151.148 14.1299L146.231 26.1699Z" fill="black"/>
<path d="M83.6337 55.879C82.1587 54.4717 81.5034 52.5954 81.5034 49.781C81.5034 43.839 83.7976 40.8681 88.7136 40.0864L93.6297 39.3044L94.1213 41.9626L89.3691 42.7445C86.2555 43.2136 84.9447 44.6209 84.4529 47.1226C85.6 46.0282 87.2388 45.2463 89.3691 45.2463C93.3019 45.2463 95.5961 47.7482 95.5961 51.1882C95.5961 54.7846 92.8103 57.7554 88.5497 57.7554C86.2555 57.5991 84.6168 56.9736 83.6337 55.879ZM92.4827 51.1882C92.4827 48.999 91.0077 47.4355 88.7136 47.4355C86.0917 47.4355 84.6168 49.1554 84.6168 51.1882C84.6168 53.3773 86.2555 55.0973 88.5497 55.0973C90.8438 55.0973 92.4827 53.5335 92.4827 51.1882Z" fill="black"/>
<path d="M97.8901 51.0317C97.8901 47.2789 100.676 44.3081 104.445 44.3081C108.706 44.3081 110.836 47.5918 110.836 51.1881C110.836 51.5008 110.836 51.6572 110.836 51.9699H101.004C101.331 54.0027 102.97 55.2535 104.937 55.2535C106.411 55.2535 107.559 54.7844 108.542 53.69L110.344 55.2535C109.033 56.6608 107.231 57.599 104.773 57.599C101.004 57.599 97.8901 54.9409 97.8901 51.0317ZM107.886 50.0935C107.722 48.2171 106.575 46.6536 104.445 46.6536C102.478 46.6536 101.168 48.0609 101.004 50.0935H107.886Z" fill="black"/>
<path d="M114.277 53.8464C115.588 54.7846 117.227 55.2537 118.865 55.2537C120.832 55.2537 121.815 54.6282 121.815 53.5336C121.815 52.5954 120.832 51.9701 119.029 51.9701H116.08V49.781H119.029C120.668 49.781 121.487 49.1555 121.487 48.2173C121.487 47.2791 120.504 46.6536 118.865 46.6536C117.227 46.6536 115.916 47.1227 114.605 48.0609L112.966 46.1845C114.605 44.9336 116.407 44.1519 119.029 44.1519C122.471 44.1519 124.601 45.5591 124.601 47.7482C124.601 49.3119 123.618 50.0937 122.307 50.719C123.781 51.0319 125.092 52.1263 125.092 53.69C125.092 55.7228 122.962 57.4428 119.029 57.4428C116.571 57.4428 114.605 56.8173 112.966 55.5664L114.277 53.8464Z" fill="black"/>
<path d="M127.223 51.0317C127.223 47.2789 130.336 44.3081 134.433 44.3081C138.53 44.3081 141.643 47.2789 141.643 51.0317C141.643 54.6282 138.53 57.7554 134.433 57.7554C130.336 57.599 127.223 54.6282 127.223 51.0317ZM138.53 51.0317C138.53 48.6862 136.891 46.81 134.433 46.81C131.975 46.81 130.336 48.6862 130.336 50.8754C130.336 53.0645 131.975 54.9409 134.433 54.9409C136.891 55.0973 138.53 53.2209 138.53 51.0317Z" fill="black"/>
<path d="M144.757 44.4646H157.211V57.2866H154.097V47.1229H147.87V57.2866H144.757V44.4646Z" fill="black"/>
<path d="M159.997 53.69C159.997 50.8754 162.291 49.4682 165.568 49.4682C167.043 49.4682 168.19 49.6246 169.173 49.9373V49.6246C169.173 47.7482 168.026 46.81 165.896 46.81C164.421 46.81 163.274 47.1227 161.963 47.5918L161.144 45.2463C162.618 44.621 164.093 44.1519 166.224 44.1519C168.19 44.1519 169.665 44.621 170.648 45.5591C171.631 46.4973 172.123 47.9046 172.123 49.4682V57.1301H169.173V55.5664C168.19 56.661 166.879 57.4428 164.749 57.4428C162.291 57.5992 159.997 56.1919 159.997 53.69ZM169.337 52.7518V51.8136C168.518 51.501 167.535 51.3445 166.224 51.3445C164.257 51.3445 163.11 52.1263 163.11 53.5336C163.11 54.7846 164.257 55.41 165.732 55.41C167.698 55.41 169.337 54.3155 169.337 52.7518Z" fill="black"/>
<path d="M175.237 51.0317C175.237 47.2789 178.186 44.3081 182.283 44.3081C184.741 44.3081 186.38 45.2463 187.691 46.4972L185.723 48.53C184.741 47.5918 183.758 46.9663 182.283 46.9663C179.989 46.9663 178.35 48.8426 178.35 51.0317C178.35 53.3772 179.989 55.0973 182.447 55.0973C183.922 55.0973 184.905 54.4718 185.887 53.5336L187.691 55.2535C186.38 56.6608 184.741 57.599 182.119 57.599C178.186 57.599 175.237 54.6282 175.237 51.0317Z" fill="black"/>
<path d="M190.477 44.4646H193.589V49.4684H199.816V44.4646H202.93V57.2866H199.816V52.1265H193.589V57.2866H190.477V44.4646Z" fill="black"/>
<path d="M206.043 51.0317C206.043 47.2789 209.157 44.3081 213.254 44.3081C217.351 44.3081 220.464 47.2789 220.464 51.0317C220.464 54.6282 217.351 57.7554 213.254 57.7554C208.993 57.599 206.043 54.6282 206.043 51.0317ZM217.351 51.0317C217.351 48.6862 215.712 46.81 213.254 46.81C210.796 46.81 209.157 48.6862 209.157 50.8754C209.157 53.0645 210.796 54.9409 213.254 54.9409C215.712 55.0973 217.351 53.2209 217.351 51.0317Z" fill="black"/>
<path d="M222.758 51.0317C222.758 47.2789 225.708 44.3081 229.805 44.3081C232.263 44.3081 233.902 45.2463 235.213 46.4972L233.246 48.53C232.263 47.5918 231.28 46.9663 229.805 46.9663C227.511 46.9663 225.872 48.8426 225.872 51.0317C225.872 53.3772 227.511 55.0973 229.969 55.0973C231.444 55.0973 232.427 54.4718 233.41 53.5336L235.213 55.2535C233.902 56.6608 232.263 57.599 229.641 57.599C225.708 57.599 222.758 54.6282 222.758 51.0317Z" fill="black"/>
<path d="M241.44 47.1229H236.687V44.4646H249.304V47.1229H244.552V57.2866H241.44V47.1229Z" fill="black"/>
<path d="M252.09 44.4646H255.205V52.7519L261.595 44.4646H264.546V57.2866H261.431V48.8429L254.876 57.2866H252.09V44.4646Z" fill="black"/>
<path d="M33.9332 64.746C32.7861 64.746 31.639 64.5896 30.492 64.2769C24.9205 63.0261 20.66 58.6478 19.6766 53.3315C19.349 51.4551 20.66 49.7352 22.6263 49.2661C24.5928 48.9532 26.3954 50.2043 26.887 52.0806C27.3785 54.7388 29.5088 56.9279 32.4585 57.5534C36.3913 58.4916 40.3241 56.1461 41.3074 52.3933C41.799 50.5169 41.4712 48.6406 40.488 47.0769C39.5049 45.5133 37.8662 44.4187 35.8997 43.9496C33.9332 43.4805 32.7861 41.6041 33.2779 39.7278C33.7695 37.8514 35.7358 36.7569 37.7023 37.226C45.5679 39.1024 50.3202 46.6078 48.3537 53.9569C46.5511 60.5242 40.488 64.746 33.9332 64.746Z" fill="url(#paint0_linear_171_169)"/>
<path d="M14.7605 46.2952C13.6135 46.2952 12.4664 46.139 11.3193 45.8261C3.45356 43.9498 -1.29863 36.4444 0.667798 29.0953C1.97875 23.7788 6.56708 19.7134 12.1386 18.7752C14.1051 18.4624 15.9076 19.7134 16.3992 21.5898C16.7269 23.4662 15.416 25.1861 13.4496 25.6552C10.6638 26.1243 8.36964 28.1571 7.71416 30.9715C6.56708 34.568 9.02511 38.3208 12.958 39.259C14.9244 39.7281 16.8908 39.4152 18.5295 38.477C20.1682 37.5389 21.3153 35.9753 21.8069 34.0989C22.2985 32.2226 24.265 31.1279 26.2313 31.597C28.1978 32.0661 29.3449 33.9425 28.8533 35.8189C27.8701 39.4152 25.576 42.5425 22.2985 44.4189C20.0043 45.6699 17.3825 46.2952 14.7605 46.2952Z" fill="url(#paint1_linear_171_169)"/>
<path d="M53.1041 18.5398C54.2512 18.5398 55.3983 18.6962 56.5454 19.0089C64.4112 20.8853 69.1633 28.3908 67.1969 35.7399C65.8859 41.0562 61.2976 45.1218 55.7261 46.06C53.7596 46.3727 51.957 45.1218 51.4655 43.2454C51.1378 41.369 52.4486 39.6491 54.4151 39.18C57.2009 38.7109 59.495 36.6781 60.1505 33.8635C61.2976 30.2672 58.8395 26.5144 54.9067 25.5762C52.9402 25.1071 50.9739 25.4198 49.3352 26.358C47.6966 27.2962 46.5495 28.8599 46.0577 30.7363C45.5661 32.6126 43.5998 33.7071 41.6333 33.238C39.667 32.7689 38.5199 30.8925 39.0115 29.0161C39.9946 25.4198 42.2888 22.2926 45.5661 20.4162C47.8603 19.1653 50.4823 18.5398 53.1041 18.5398Z" fill="url(#paint2_linear_171_169)"/>
<path d="M19.4087 14.0997C19.4087 13.004 19.5724 11.9082 19.8998 10.8124C21.864 3.2986 29.721 -1.24101 37.4143 0.63745C42.9797 1.88975 47.2356 6.27281 48.2177 11.5951C48.545 13.4736 47.2356 15.1955 45.2713 15.6651C43.3071 15.9782 41.5066 14.7259 41.0155 12.8474C40.5244 10.1863 38.3964 7.99474 35.45 7.36858C31.6853 6.27281 27.7568 8.62089 26.7746 12.3778C26.2836 14.2563 26.6111 16.1347 27.5932 17.7002C28.5753 19.2655 30.2121 20.3613 32.1763 20.8309C34.1406 21.3005 35.2865 23.179 34.7954 25.0574C34.3043 26.9359 32.3401 28.0316 30.3758 27.5621C26.6111 26.6227 23.3372 24.4312 21.3729 21.3005C20.0635 19.1089 19.4087 16.6044 19.4087 14.0997Z" fill="url(#paint3_linear_171_169)"/>
<defs>
<linearGradient id="paint0_linear_171_169" x1="32.3004" y1="6.64335" x2="34.194" y2="58.7691" gradientUnits="userSpaceOnUse">
<stop stop-color="#02C786"/>
<stop offset="1" stop-color="#178E82"/>
</linearGradient>
<linearGradient id="paint1_linear_171_169" x1="5.7012" y1="29.4547" x2="54.2332" y2="53.6263" gradientUnits="userSpaceOnUse">
<stop stop-color="#03C947"/>
<stop offset="1" stop-color="#028BA0"/>
</linearGradient>
<linearGradient id="paint2_linear_171_169" x1="18.952" y1="11.5584" x2="61.9439" y2="39.0674" gradientUnits="userSpaceOnUse">
<stop stop-color="#03C947"/>
<stop offset="1" stop-color="#028BA0"/>
</linearGradient>
<linearGradient id="paint3_linear_171_169" x1="34.1777" y1="6.61329" x2="36.9787" y2="57.0969" gradientUnits="userSpaceOnUse">
<stop stop-color="#02C786"/>
<stop offset="1" stop-color="#178E82"/>
</linearGradient>
</defs>
</svg>
