<svg width="159" height="171" viewBox="0 0 159 171" fill="none" xmlns="http://www.w3.org/2000/svg">
<path d="M12.2992 15.0744H85.3474V53.9503H12.2992V15.0744Z" fill="#004211"/>
<path d="M75.8193 118.306C75.8193 132.777 64.0883 144.508 49.6173 144.508C35.1463 144.508 23.4152 132.777 23.4152 118.306C23.4152 103.835 35.1463 92.1042 49.6173 92.1042C64.0883 92.1042 75.8193 103.835 75.8193 118.306Z" fill="#004211"/>
<path d="M69.4673 118.306C69.4673 129.269 60.5802 138.156 49.6173 138.156C38.6544 138.156 29.7672 129.269 29.7672 118.306C29.7672 107.343 38.6544 98.4562 49.6173 98.4562C60.5802 98.4562 69.4673 107.343 69.4673 118.306Z" fill="white"/>
<path d="M21.8272 88.1262V77.8122H32.1492V88.1262H21.8272Z" fill="#004211"/>
<path d="M44.0593 88.1262V77.8122H54.3813V88.1262H44.0593Z" fill="#004211"/>
<path d="M66.2913 88.1262V77.8122H76.6133V88.1262H66.2913Z" fill="#004211"/>
<path d="M117.901 84.9582V66.6962H137.751V84.9582H117.901Z" fill="#004211"/>
<path d="M124.253 71.4048V61.8842H130.605V71.4048H124.253Z" fill="#004211"/>
<path d="M137.751 84.5612C137.751 90.0426 133.308 94.4862 127.826 94.4862C122.345 94.4862 117.901 90.0426 117.901 84.5612C117.901 79.0798 122.345 74.6362 127.826 74.6362C133.308 74.6362 137.751 79.0798 137.751 84.5612Z" fill="#004211"/>
<path d="M137.751 114.336V96.0742H158.396V114.336H137.751Z" fill="#004211"/>
<path d="M144.898 100.831V91.3102H151.25V100.831H144.898Z" fill="#004211"/>
<path d="M158.396 113.939C158.396 119.421 153.774 123.864 148.074 123.864C142.373 123.864 137.751 119.421 137.751 113.939C137.751 108.458 142.373 104.014 148.074 104.014C153.774 104.014 158.396 108.458 158.396 113.939Z" fill="#004211"/>
<path d="M152.838 163.564V170.71H96.4634V163.564H152.838Z" fill="#004211"/>
<path d="M132.193 154.036H123.459V92.8982H132.193V154.036Z" fill="#004211"/>
<path d="M152.838 165.946H143.309V101.632H152.838V165.946Z" fill="#004211"/>
<path d="M94.0814 154.036V145.302H131.399V154.036H94.0814Z" fill="#004211"/>
<path d="M0.38916 0H6.74118V170.71H0.38916V0Z" fill="#004211"/>
<path d="M0.38916 0H6.74118V170.71H0.38916V0Z" fill="#004211"/>
<path d="M0.38916 0H6.74118V170.71H0.38916V0Z" fill="#004211"/>
<path d="M0.38916 0H6.74118V170.71H0.38916V0Z" fill="#004211"/>
<path d="M0.38916 0H6.74118V170.71H0.38916V0Z" fill="#004211"/>
<path d="M0.38916 0H6.74118V170.71H0.38916V0Z" fill="#004211"/>
<path d="M0.38916 0H6.74118V170.71H0.38916V0Z" fill="#004211"/>
<path d="M0.38916 0H6.74118V170.71H0.38916V0Z" fill="#004211"/>
<path d="M91.6994 0H98.0514V170.71H91.6994V0Z" fill="#004211"/>
<path d="M91.6994 0H98.0514V170.71H91.6994V0Z" fill="#004211"/>
<path d="M91.6994 0H98.0514V170.71H91.6994V0Z" fill="#004211"/>
<path d="M91.6994 0H98.0514V170.71H91.6994V0Z" fill="#004211"/>
<path d="M91.6994 0H98.0514V170.71H91.6994V0Z" fill="#004211"/>
<path d="M91.6994 0H98.0514V170.71H91.6994V0Z" fill="#004211"/>
<path d="M91.6994 0H98.0514V170.71H91.6994V0Z" fill="#004211"/>
<path d="M91.6994 0H98.0514V170.71H91.6994V0Z" fill="#004211"/>
<path d="M98.0514 0V6.35202H0.38916V0H98.0514Z" fill="#004211"/>
<path d="M98.0514 0V6.35202H0.38916V0H98.0514Z" fill="#004211"/>
<path d="M98.0514 0V6.35202H0.38916V0H98.0514Z" fill="#004211"/>
<path d="M98.0514 0V6.35202H0.38916V0H98.0514Z" fill="#004211"/>
<path d="M98.0514 0V6.35202H0.38916V0H98.0514Z" fill="#004211"/>
<path d="M98.0514 0V6.35202H0.38916V0H98.0514Z" fill="#004211"/>
<path d="M98.0514 0V6.35202H0.38916V0H98.0514Z" fill="#004211"/>
<path d="M98.0514 0V6.35202H0.38916V0H98.0514Z" fill="#004211"/>
<path d="M98.0514 164.358V170.71H0.38916V164.358H98.0514Z" fill="#004211"/>
<path d="M98.0514 164.358V170.71H0.38916V164.358H98.0514Z" fill="#004211"/>
<path d="M98.0514 164.358V170.71H0.38916V164.358H98.0514Z" fill="#004211"/>
<path d="M98.0514 164.358V170.71H0.38916V164.358H98.0514Z" fill="#004211"/>
<path d="M98.0514 164.358V170.71H0.38916V164.358H98.0514Z" fill="#004211"/>
<path d="M98.0514 164.358V170.71H0.38916V164.358H98.0514Z" fill="#004211"/>
<path d="M98.0514 164.358V170.71H0.38916V164.358H98.0514Z" fill="#004211"/>
<path d="M98.0514 164.358V170.71H0.38916V164.358H98.0514Z" fill="#004211"/>
</svg>
