<svg width="173" height="172" viewBox="0 0 173 172" fill="none" xmlns="http://www.w3.org/2000/svg">
<path d="M130.67 85.7612C130.67 110.12 111.073 129.867 86.8986 129.867C62.7244 129.867 43.1274 110.12 43.1274 85.7612C43.1274 61.4023 62.7244 41.6554 86.8986 41.6554C111.073 41.6554 130.67 61.4023 130.67 85.7612Z" fill="#004211"/>
<path d="M124.996 85.7613C124.996 106.963 107.939 124.15 86.8986 124.15C65.8581 124.15 48.8014 106.963 48.8014 85.7613C48.8014 64.56 65.8581 47.3729 86.8986 47.3729C107.939 47.3729 124.996 64.56 124.996 85.7613Z" fill="white"/>
<path d="M104.731 0H69.0659L69.4712 22.0529V26.9535L74.74 24.5032V22.8697V4.90064H99.0573V22.4613V24.5032L104.731 26.9536V0Z" fill="#292E54"/>
<path d="M39.1659 12.2516L13.9466 37.6637L32.8494 56.6844L35.4269 51.0484L34.0074 49.7921L21.3978 37.0861L38.5928 19.7597L50.9158 32.177L52.449 33.8961L58.1231 31.4458L39.1659 12.2516Z" fill="#292E54"/>
<path d="M135.082 12.2516L160.302 37.6637L141.122 56.497L138.776 51.4568L140.241 49.7921L152.85 37.0861L135.656 19.7597L123.332 32.177L122.159 33.4877L116.079 31.4458L135.082 12.2516Z" fill="#292E54"/>
<path d="M172.977 67.7923V103.73H146.071L148.503 98.0129H150.281H168.114V73.5097H150.686H148.503L146.071 67.8248L172.977 67.7923Z" fill="#292E54"/>
<path d="M69.4712 26.9535L58.1231 31.4458L54.4754 27.7703L69.4712 22.0529V26.9535Z" fill="#292E54"/>
<path d="M104.731 26.9536L116.079 31.4458L119.727 27.7703L104.731 21.8488L104.731 26.9536Z" fill="#292E54"/>
<path d="M141.122 56.497L146.071 67.8248L151.292 67.8185L144.524 52.978L141.122 56.497Z" fill="#292E54"/>
<path d="M146.071 103.73L141.378 115.3L144.855 119.249L150.934 103.73L146.071 103.73Z" fill="#292E54"/>
<path d="M0.977295 67.7923V103.73H27.8837L25.6999 98.0129H23.6735H5.84077V73.5097H23.2682H25.2947L27.8838 67.8248L0.977295 67.7923Z" fill="#292E54"/>
<path d="M32.9754 56.3574L27.8701 67.8548L22.4576 67.8183L29.3475 53.1824L32.9754 56.3574Z" fill="#292E54"/>
<path d="M27.8837 103.73L32.9952 115.574L28.9423 119.249L23.0202 103.73L27.8837 103.73Z" fill="#292E54"/>
<path d="M104.731 172H69.0659L69.4712 149.947V145.046L74.74 147.428V149.13V167.099H99.0573V149.539V147.428L104.731 145.046V172Z" fill="#292E54"/>
<path d="M39.1659 159.748L13.9466 134.336L32.8611 115.277L35.4269 120.883L34.0074 122.208L21.3978 134.914L38.5928 152.24L50.9158 139.823L52.449 138.443L58.1231 140.554L39.1659 159.748Z" fill="#292E54"/>
<path d="M135.082 159.748L160.302 134.336L141.387 115.277L138.776 120.883L140.241 122.208L152.85 134.914L135.656 152.24L123.332 139.823L121.754 138.443L116.079 140.554L135.082 159.748Z" fill="#292E54"/>
<path d="M69.4712 145.046L58.1231 140.554L54.4754 144.23L69.4712 149.947V145.046Z" fill="#292E54"/>
<path d="M104.731 145.046L116.079 140.554L119.727 144.23L104.731 150.151L104.731 145.046Z" fill="#292E54"/>
<path d="M73.1188 65.7503L76.7664 62.8916L80.414 60.8496L84.8722 59.2161L89.3304 58.8077L96.2203 59.1199L97.0309 59.2161L97.8414 59.5283L99.4626 60.3451L99.8679 60.8496V62.0748L99.4626 62.8916L90.9515 72.6929C88.5774 75.0851 87.2463 76.4264 84.8722 78.8187L87.3039 86.578L83.251 90.2535L78.7928 77.1851L85.2775 70.2425L91.3568 64.1167H88.9251L86.4933 64.5251L84.0616 65.3419L81.6299 66.5671L78.7928 68.2006L75.9558 70.6509L73.1188 74.3264L71.0923 78.4103L70.2818 81.6774L69.8765 84.9445V91.4787L54.8808 106.997L52.0438 101.28L63.7971 89.4367L64.2024 82.9025L65.8236 76.7767L68.6606 71.0593L70.6871 68.2006L73.1188 65.7503Z" fill="#292E54"/>
<path d="M107.163 100.463L110 96.7877L112.027 93.1122L113.648 88.62L114.053 84.1277L113.743 77.1851L113.648 76.3683L113.338 75.5516L112.527 73.918L112.027 73.5096H110.811L110 73.918L100.273 82.4941L94.1938 88.62L86.4933 86.1696L83.251 90.2535L95.815 94.7458L102.705 88.2116L108.784 82.0858V84.5361L108.379 86.9864L107.568 89.4367L106.353 91.8871L104.731 94.7458L102.3 97.6045L98.652 100.463L94.5991 102.505L91.3568 103.322L88.1145 103.73H81.6299L66.2289 118.841L71.9029 121.699L83.6563 109.856L90.141 109.448L96.2203 107.814L101.894 104.955L104.731 102.913L107.163 100.463Z" fill="#292E54"/>
<path d="M104.731 0H69.0659L69.4712 22.0529V26.9535L74.3347 24.6433L74.74 22.8697V4.90064H99.0573V22.4613L99.8679 24.6433L104.731 26.9536V0Z" fill="#292E54"/>
<path d="M39.1659 12.2516L13.9466 37.6637L32.8611 56.7228L34.9655 51.3351L34.0074 49.7921L21.3978 37.0861L38.5928 19.7597L50.9158 32.177L53.0202 33.1423L58.1231 31.4458L39.1659 12.2516Z" fill="#292E54"/>
<path d="M135.082 12.2516L160.302 37.6637L141.387 56.7228L139.283 51.3351L140.241 49.7921L152.85 37.0861L135.656 19.7597L123.332 32.177L121.754 33.4877L116.079 31.4458L135.082 12.2516Z" fill="#292E54"/>
<path d="M172.977 67.7923V103.73H146.071L148.521 98.4213L150.281 98.0129H168.114V73.5097H150.686L148.65 73.3115L146.071 67.8248L172.977 67.7923Z" fill="#292E54"/>
<path d="M69.4712 26.9535L58.1231 31.4458L54.4754 27.7703L69.4712 22.0529V26.9535Z" fill="#292E54"/>
<path d="M104.731 26.9536L116.079 31.4458L119.727 27.7703L104.731 21.8488L104.731 26.9536Z" fill="#292E54"/>
<path d="M141.27 56.8758L146.336 68.0506L151.494 67.9599L144.789 53.2037L141.27 56.8758Z" fill="#292E54"/>
<path d="M146.071 103.73L141.41 115.267L145.058 118.943L150.934 103.73L146.071 103.73Z" fill="#292E54"/>
<path d="M0.977295 67.7923V103.73H27.8837L25.4337 98.4213L23.6735 98.0129H5.84077V73.5097H23.2682L25.3045 73.3115L27.8838 67.8248L0.977295 67.7923Z" fill="#292E54"/>
<path d="M32.8494 56.6844L27.6184 68.0505L22.4576 67.8183L29.3475 53.1824L32.8494 56.6844Z" fill="#292E54"/>
<path d="M27.8837 103.73L32.9952 115.574L28.9423 119.249L23.0202 103.73L27.8837 103.73Z" fill="#292E54"/>
<path d="M104.731 172H69.0659L69.4712 149.947V145.046L74.3347 147.357L74.74 149.13V167.099H99.0573V149.539L99.8679 147.357L104.731 145.046V172Z" fill="#292E54"/>
<path d="M39.1659 159.748L13.9466 134.336L32.8611 115.277L34.9655 120.665L34.0074 122.208L21.3978 134.914L38.5928 152.24L50.9158 139.823L53.0202 138.857L58.1231 140.554L39.1659 159.748Z" fill="#292E54"/>
<path d="M135.082 159.748L160.302 134.336L141.387 115.277L139.283 120.665L140.241 122.208L152.85 134.914L135.656 152.24L123.332 139.823L121.754 138.513L116.079 140.554L135.082 159.748Z" fill="#292E54"/>
<path d="M69.4712 145.046L58.1231 140.554L54.4754 144.23L69.4712 149.947V145.046Z" fill="#292E54"/>
<path d="M104.731 145.046L116.079 140.554L119.727 144.23L104.731 150.151L104.731 145.046Z" fill="#292E54"/>
<path d="M73.1188 65.7503L76.7664 62.8916L80.414 60.8496L84.8722 59.2161L89.3304 58.8077L96.2203 59.1199L97.0309 59.2161L97.8414 59.5283L99.4626 60.3451L99.8679 60.8496V62.0748L99.4626 62.8916L90.9515 72.6929C88.5774 75.0851 87.2463 76.4264 84.8722 78.8187L87.3039 86.578L83.251 90.2535L78.7928 77.1851L85.2775 70.2425L91.3568 64.1167H88.9251L86.4933 64.5251L84.0616 65.3419L81.6299 66.5671L78.7928 68.2006L75.9558 70.6509L73.1188 74.3264L71.0923 78.4103L70.2818 81.6774L69.8765 84.9445V91.4787L54.8808 106.997L52.0438 101.28L63.7971 89.4367L64.2024 82.9025L65.8236 76.7767L68.6606 71.0593L70.6871 68.2006L73.1188 65.7503Z" fill="#004211"/>
<path d="M107.163 100.463L110 96.7877L112.027 93.1122L113.648 88.62L114.053 84.1277L113.743 77.1851L113.648 76.3683L113.338 75.5516L112.527 73.918L112.027 73.5096H110.811L110 73.918L100.273 82.4941L94.1938 88.62L87.3039 86.578L83.251 90.2535L95.815 94.7458L102.705 88.2116L108.784 82.0858V84.5361L108.379 86.9864L107.568 89.4367L106.353 91.8871L104.731 94.7458L102.3 97.6045L98.652 100.463L94.5991 102.505L91.3568 103.322L88.1145 103.73H81.6299L66.2289 118.841L71.9029 121.699L83.6563 109.856L90.141 109.448L96.2203 107.814L101.894 104.955L104.731 102.913L107.163 100.463Z" fill="#004211"/>
</svg>
