<svg width="248" height="167" viewBox="0 0 248 167" fill="none" xmlns="http://www.w3.org/2000/svg">
<rect x="2.5" y="2.5" width="243" height="162" rx="17.5" stroke="#004211" stroke-width="5"/>
<path d="M158.286 83.3154C158.286 102.151 143.132 117.42 124.439 117.42C105.746 117.42 90.5928 102.151 90.5928 83.3154C90.5928 64.4797 105.746 49.2103 124.439 49.2103C143.132 49.2103 158.286 64.4797 158.286 83.3154Z" fill="#004211"/>
<path d="M153.898 83.3154C153.898 99.7095 140.709 112.999 124.439 112.999C108.169 112.999 94.9803 99.7095 94.9803 83.3154C94.9803 66.9214 108.169 53.6314 124.439 53.6314C140.709 53.6314 153.898 66.9214 153.898 83.3154Z" fill="white"/>
<path d="M138.228 17H110.65L110.963 34.0525V37.842L115.037 35.9473V34.6841V20.7895H133.841V34.3683V35.9473L138.228 37.842V17Z" fill="#292E54"/>
<path d="M87.5296 26.4736L68.0286 46.1237L82.6453 60.8316L84.6383 56.4735L83.5407 55.5021L73.7903 45.6771L87.0864 32.2793L96.6153 41.881L97.8008 43.2104L102.188 41.3157L87.5296 26.4736Z" fill="#292E54"/>
<path d="M161.698 26.4736L181.199 46.1237L166.368 60.6866L164.553 56.7892L165.686 55.5021L175.437 45.6771L162.141 32.2793L152.612 41.881L151.704 42.8946L147.003 41.3157L161.698 26.4736Z" fill="#292E54"/>
<path d="M191 69.4208V97.2101H170.194L172.075 92.789H173.45H187.239V73.8418H173.763H172.075L170.194 69.4459L191 69.4208Z" fill="#292E54"/>
<path d="M110.963 37.842L102.188 41.3157L99.3677 38.4735L110.963 34.0525V37.842Z" fill="#292E54"/>
<path d="M138.228 37.842L147.003 41.3157L149.824 38.4736L138.228 33.8947L138.228 37.842Z" fill="#292E54"/>
<path d="M166.368 60.6866L170.194 69.4459L174.232 69.4411L168.998 57.9655L166.368 60.6866Z" fill="#292E54"/>
<path d="M170.194 97.2101L166.566 106.156L169.254 109.21L173.955 97.2101L170.194 97.2101Z" fill="#292E54"/>
<path d="M58 69.4208V97.2101H78.8055L77.1169 92.789H75.55H61.7607V73.8418H75.2366H76.8035L78.8056 69.4459L58 69.4208Z" fill="#292E54"/>
<path d="M82.7427 60.5787L78.795 69.4691L74.6098 69.4409L79.9375 58.1236L82.7427 60.5787Z" fill="#292E54"/>
<path d="M78.8055 97.2101L82.758 106.368L79.6241 109.21L75.0448 97.2101L78.8055 97.2101Z" fill="#292E54"/>
<path d="M138.228 150H110.65L110.963 132.947V129.158L115.037 130.999V132.316V146.211H133.841V132.632V130.999L138.228 129.158V150Z" fill="#292E54"/>
<path d="M87.5296 140.526L68.0286 120.876L82.6543 106.139L84.6383 110.473L83.5407 111.498L73.7903 121.323L87.0864 134.721L96.6153 125.119L97.8008 124.052L102.188 125.684L87.5296 140.526Z" fill="#292E54"/>
<path d="M161.698 140.526L181.199 120.876L166.573 106.139L164.553 110.473L165.686 111.498L175.437 121.323L162.141 134.721L152.612 125.119L151.391 124.052L147.003 125.684L161.698 140.526Z" fill="#292E54"/>
<path d="M110.963 129.158L102.188 125.684L99.3677 128.526L110.963 132.947V129.158Z" fill="#292E54"/>
<path d="M138.228 129.158L147.003 125.684L149.824 128.526L138.228 133.105L138.228 129.158Z" fill="#292E54"/>
<path d="M113.784 67.8418L116.604 65.6313L119.425 64.0523L122.872 62.7892L126.32 62.4734L131.647 62.7148L132.274 62.7892L132.901 63.0306L134.154 63.6622L134.468 64.0523V64.9997L134.154 65.6313L127.573 73.2102C125.737 75.06 124.708 76.0972 122.872 77.947L124.753 83.947L121.619 86.789L118.171 76.6838L123.186 71.3155L127.886 66.5786H126.006L124.126 66.8944L122.245 67.526L120.365 68.4734L118.171 69.7365L115.978 71.6312L113.784 74.4733L112.217 77.6312L111.59 80.1575L111.277 82.6838V87.7364L99.6812 99.7363L97.4874 95.3153L106.576 86.1575L106.889 81.1049L108.143 76.3681L110.337 71.947L111.903 69.7365L113.784 67.8418Z" fill="#292E54"/>
<path d="M140.109 94.6837L142.303 91.8417L143.869 88.9996L145.123 85.5259L145.436 82.0522L145.197 76.6838L145.123 76.0523L144.883 75.4207L144.257 74.1575L143.869 73.8418H142.929L142.303 74.1575L134.781 80.7891L130.08 85.5259L124.126 83.6312L121.619 86.789L131.334 90.2627L136.661 85.2101L141.362 80.4733V82.368L141.049 84.2627L140.422 86.1575L139.482 88.0522L138.228 90.2627L136.348 92.4732L133.528 94.6837L130.394 96.2627L127.886 96.8943L125.379 97.21H120.365L108.456 108.894L112.844 111.105L121.932 101.947L126.946 101.631L131.647 100.368L136.035 98.1574L138.228 96.5785L140.109 94.6837Z" fill="#292E54"/>
<path d="M138.228 17H110.65L110.963 34.0525V37.842L114.724 36.0556L115.037 34.6841V20.7895H133.841V34.3683L134.468 36.0556L138.228 37.842V17Z" fill="#292E54"/>
<path d="M87.5296 26.4736L68.0286 46.1237L82.6543 60.8612L84.2816 56.6951L83.5407 55.5021L73.7903 45.6771L87.0864 32.2793L96.6153 41.881L98.2425 42.6275L102.188 41.3157L87.5296 26.4736Z" fill="#292E54"/>
<path d="M161.698 26.4736L181.199 46.1237L166.573 60.8612L164.946 56.6951L165.686 55.5021L175.437 45.6771L162.141 32.2793L152.612 41.881L151.391 42.8946L147.003 41.3157L161.698 26.4736Z" fill="#292E54"/>
<path d="M191 69.4208V97.2101H170.194L172.089 93.1048L173.45 92.789H187.239V73.8418H173.763L172.189 73.6886L170.194 69.4459L191 69.4208Z" fill="#292E54"/>
<path d="M110.963 37.842L102.188 41.3157L99.3677 38.4735L110.963 34.0525V37.842Z" fill="#292E54"/>
<path d="M138.228 37.842L147.003 41.3157L149.824 38.4736L138.228 33.8947L138.228 37.842Z" fill="#292E54"/>
<path d="M166.482 60.9796L170.399 69.6205L174.388 69.5504L169.204 58.1401L166.482 60.9796Z" fill="#292E54"/>
<path d="M170.194 97.2101L166.59 106.131L169.411 108.973L173.955 97.2101L170.194 97.2101Z" fill="#292E54"/>
<path d="M58 69.4208V97.2101H78.8055L76.911 93.1048L75.55 92.789H61.7607V73.8418H75.2366L76.8112 73.6886L78.8056 69.4459L58 69.4208Z" fill="#292E54"/>
<path d="M82.6453 60.8316L78.6004 69.6205L74.6098 69.4409L79.9375 58.1236L82.6453 60.8316Z" fill="#292E54"/>
<path d="M78.8055 97.2101L82.758 106.368L79.6241 109.21L75.0448 97.2101L78.8055 97.2101Z" fill="#292E54"/>
<path d="M138.228 150H110.65L110.963 132.947V129.158L114.724 130.944L115.037 132.316V146.211H133.841V132.632L134.468 130.944L138.228 129.158V150Z" fill="#292E54"/>
<path d="M87.5296 140.526L68.0286 120.876L82.6543 106.139L84.2816 110.305L83.5407 111.498L73.7903 121.323L87.0864 134.721L96.6153 125.119L98.2425 124.372L102.188 125.684L87.5296 140.526Z" fill="#292E54"/>
<path d="M161.698 140.526L181.199 120.876L166.573 106.139L164.946 110.305L165.686 111.498L175.437 121.323L162.141 134.721L152.612 125.119L151.391 124.106L147.003 125.684L161.698 140.526Z" fill="#292E54"/>
<path d="M110.963 129.158L102.188 125.684L99.3677 128.526L110.963 132.947V129.158Z" fill="#292E54"/>
<path d="M138.228 129.158L147.003 125.684L149.824 128.526L138.228 133.105L138.228 129.158Z" fill="#292E54"/>
<path d="M113.784 67.8418L116.604 65.6313L119.425 64.0523L122.872 62.7892L126.32 62.4734L131.647 62.7148L132.274 62.7892L132.901 63.0306L134.154 63.6622L134.468 64.0523V64.9997L134.154 65.6313L127.573 73.2102C125.737 75.06 124.708 76.0972 122.872 77.947L124.753 83.947L121.619 86.789L118.171 76.6838L123.186 71.3155L127.886 66.5786H126.006L124.126 66.8944L122.245 67.526L120.365 68.4734L118.171 69.7365L115.978 71.6312L113.784 74.4733L112.217 77.6312L111.59 80.1575L111.277 82.6838V87.7364L99.6812 99.7363L97.4874 95.3153L106.576 86.1575L106.889 81.1049L108.143 76.3681L110.337 71.947L111.903 69.7365L113.784 67.8418Z" fill="#004211"/>
<path d="M140.109 94.6837L142.303 91.8417L143.869 88.9996L145.123 85.5259L145.436 82.0522L145.197 76.6838L145.123 76.0523L144.883 75.4207L144.257 74.1575L143.869 73.8418H142.929L142.303 74.1575L134.781 80.7891L130.08 85.5259L124.753 83.947L121.619 86.789L131.334 90.2627L136.661 85.2101L141.362 80.4733V82.368L141.049 84.2627L140.422 86.1575L139.482 88.0522L138.228 90.2627L136.348 92.4732L133.528 94.6837L130.394 96.2627L127.886 96.8943L125.379 97.21H120.365L108.456 108.894L112.844 111.105L121.932 101.947L126.946 101.631L131.647 100.368L136.035 98.1574L138.228 96.5785L140.109 94.6837Z" fill="#004211"/>
</svg>
