<svg width="248" height="167" viewBox="0 0 248 167" fill="none" xmlns="http://www.w3.org/2000/svg">
<rect x="2.5" y="2.49988" width="243" height="162" rx="17.5" fill="white" stroke="#004211" stroke-width="5"/>
<path d="M133.114 98.6762V131.001H125.164V98.6762H133.114Z" fill="#004211"/>
<path d="M133.114 98.6762V131.001H125.164V98.6762H133.114Z" fill="#004211"/>
<path d="M133.114 98.6762V131.001H125.164V98.6762H133.114Z" fill="#292E54"/>
<path d="M155.129 98.6762V131.001H147.179V98.6762H155.129Z" fill="#004211"/>
<path d="M155.129 98.6762V131.001H147.179V98.6762H155.129Z" fill="#004211"/>
<path d="M155.129 98.6762V131.001H147.179V98.6762H155.129Z" fill="#292E54"/>
<path d="M170.417 131.001V145.638H110.488V131.001H170.417Z" fill="#004211"/>
<path d="M170.417 131.001V145.638H110.488V131.001H170.417Z" fill="#004211"/>
<path d="M170.417 131.001V145.638H110.488V131.001H170.417Z" fill="#292E54"/>
<path d="M206.496 20H212V98.6762H206.496V20Z" fill="#004211"/>
<path d="M206.496 20H212V98.6762H206.496V20Z" fill="#004211"/>
<path d="M206.496 20H212V98.6762H206.496V20Z" fill="#292E54"/>
<path d="M71.3504 20H76.8541V98.6762H71.3504V20Z" fill="#004211"/>
<path d="M71.3504 20H76.8541V98.6762H71.3504V20Z" fill="#004211"/>
<path d="M71.3504 20H76.8541V98.6762H71.3504V20Z" fill="#292E54"/>
<path d="M212 20V25.489H71.3504V20H212Z" fill="#004211"/>
<path d="M212 20V25.489H71.3504V20H212Z" fill="#004211"/>
<path d="M212 20V25.489H71.3504V20H212Z" fill="#292E54"/>
<path d="M212 93.1872V98.6762H71.3504V93.1872H212Z" fill="#004211"/>
<path d="M212 93.1872V98.6762H71.3504V93.1872H212Z" fill="#004211"/>
<path d="M212 93.1872V98.6762H71.3504V93.1872H212Z" fill="#292E54"/>
<path d="M40.5128 40.6748H94.6667V141.486H40.5128V40.6748Z" fill="white"/>
<path d="M81.6485 107.739C81.6485 115.269 75.3601 121.373 67.6028 121.373C59.8456 121.373 53.5571 115.269 53.5571 107.739C53.5571 100.21 59.8456 94.1054 67.6028 94.1054C75.3601 94.1054 81.6485 100.21 81.6485 107.739Z" fill="#004211"/>
<path d="M76.5956 107.939C76.5956 112.877 72.5694 116.88 67.6029 116.88C62.6364 116.88 58.6102 112.877 58.6102 107.939C58.6102 103.002 62.6364 98.999 67.6029 98.999C72.5694 98.999 76.5956 103.002 76.5956 107.939Z" fill="white"/>
<path d="M65.8044 101.043V92.3576H71.4569V101.043H65.8044Z" fill="white"/>
<path d="M65.8044 101.043V92.3576H71.4569V101.043H65.8044Z" fill="white"/>
<path d="M65.8044 101.043V92.3576H71.4569V101.043H65.8044Z" fill="white"/>
<path d="M65.8044 101.043V92.3576H71.4569V101.043H65.8044Z" fill="white"/>
<path d="M65.8044 101.043V92.3576H71.4569V101.043H65.8044Z" fill="white"/>
<path d="M65.8044 101.043V92.3576H71.4569V101.043H65.8044Z" fill="white"/>
<path d="M65.8044 101.043V92.3576H71.4569V101.043H65.8044Z" fill="white"/>
<path d="M65.8044 101.043V92.3576H71.4569V101.043H65.8044Z" fill="white"/>
<path d="M65.8044 101.043V92.3576H71.4569V101.043H65.8044Z" fill="white"/>
<path d="M63.7489 101.043V92.3576H69.4014V101.043H63.7489Z" fill="white"/>
<path d="M63.7489 101.043V92.3576H69.4014V101.043H63.7489Z" fill="white"/>
<path d="M63.7489 101.043V92.3576H69.4014V101.043H63.7489Z" fill="white"/>
<path d="M63.7489 101.043V92.3576H69.4014V101.043H63.7489Z" fill="white"/>
<path d="M63.7489 101.043V92.3576H69.4014V101.043H63.7489Z" fill="white"/>
<path d="M63.7489 101.043V92.3576H69.4014V101.043H63.7489Z" fill="white"/>
<path d="M63.7489 101.043V92.3576H69.4014V101.043H63.7489Z" fill="white"/>
<path d="M63.7489 101.043V92.3576H69.4014V101.043H63.7489Z" fill="white"/>
<path d="M63.7489 101.043V92.3576H69.4014V101.043H63.7489Z" fill="white"/>
<path d="M64.7766 101.043V92.3576H70.4292V101.043H64.7766Z" fill="#004211"/>
<path d="M99.2057 141.402V146H36.5139V141.402H99.2057Z" fill="#004211"/>
<path d="M99.2057 141.402V146H36.5139V141.402H99.2057Z" fill="#004211"/>
<path d="M99.2057 141.402V146H36.5139V141.402H99.2057Z" fill="#004211"/>
<path d="M98.6919 36.1608V40.7587H36V36.1608H98.6919Z" fill="#004211"/>
<path d="M98.6919 36.1608V40.7587H36V36.1608H98.6919Z" fill="#004211"/>
<path d="M98.6919 36.1608V40.7587H36V36.1608H98.6919Z" fill="#004211"/>
<path d="M40.6248 146H36V36.1608H40.6248V146Z" fill="#004211"/>
<path d="M40.6248 146H36V36.1608H40.6248V146Z" fill="#004211"/>
<path d="M40.6248 146H36V36.1608H40.6248V146Z" fill="#004211"/>
<path d="M99.2057 146H94.5809V36.1608H99.2057V146Z" fill="#004211"/>
<path d="M99.2057 146H94.5809V36.1608H99.2057V146Z" fill="#004211"/>
<path d="M99.2057 146H94.5809V36.1608H99.2057V146Z" fill="#004211"/>
<path d="M88.9284 81.1182H46.2774V66.3027H88.9284V81.1182Z" fill="#004211"/>
<path d="M88.9284 81.1182H46.2774V66.3027H88.9284V81.1182Z" fill="#004211"/>
<path d="M88.9284 81.1182H46.2774V66.3027H88.9284V81.1182Z" fill="#004211"/>
<path d="M88.9284 64.2592H46.2774V51.9981H88.9284V64.2592Z" fill="#004211"/>
<path d="M88.9284 64.2592H46.2774V51.9981H88.9284V64.2592Z" fill="#004211"/>
<path d="M88.9284 64.2592H46.2774V51.9981H88.9284V64.2592Z" fill="#004211"/>
</svg>
