<svg width="248" height="167" viewBox="0 0 248 167" fill="none" xmlns="http://www.w3.org/2000/svg">
<rect x="2.5" y="2.5" width="243" height="162" rx="17.5" stroke="#004211" stroke-width="5"/>
<path d="M86.4975 28.0208H144.749V59.0219H86.4975V28.0208Z" fill="#004211"/>
<path d="M137.151 110.342C137.151 121.881 127.796 131.236 116.256 131.236C104.717 131.236 95.3618 121.881 95.3618 110.342C95.3618 98.802 104.717 89.4472 116.256 89.4472C127.796 89.4472 137.151 98.802 137.151 110.342Z" fill="#004211"/>
<path d="M132.085 110.342C132.085 119.084 124.998 126.171 116.256 126.171C107.514 126.171 100.427 119.084 100.427 110.342C100.427 101.6 107.514 94.5126 116.256 94.5126C124.998 94.5126 132.085 101.6 132.085 110.342Z" fill="white"/>
<path d="M94.0955 86.275V78.0503H102.327V86.275H94.0955Z" fill="#004211"/>
<path d="M111.824 86.275V78.0503H120.055V86.275H111.824Z" fill="#004211"/>
<path d="M129.553 86.275V78.0503H137.784V86.275H129.553Z" fill="#004211"/>
<path d="M170.709 83.7487V69.1859H186.538V83.7487H170.709Z" fill="#004211"/>
<path d="M175.774 72.9408V65.3487H180.839V72.9408H175.774Z" fill="#004211"/>
<path d="M186.538 83.4322C186.538 87.8033 182.994 91.3467 178.623 91.3467C174.252 91.3467 170.709 87.8033 170.709 83.4322C170.709 79.0611 174.252 75.5176 178.623 75.5176C182.994 75.5176 186.538 79.0611 186.538 83.4322Z" fill="#004211"/>
<path d="M186.538 107.176V92.6131H203V107.176H186.538Z" fill="#004211"/>
<path d="M192.236 96.4062V88.8141H197.302V96.4062H192.236Z" fill="#004211"/>
<path d="M203 106.859C203 111.23 199.315 114.774 194.769 114.774C190.223 114.774 186.538 111.23 186.538 106.859C186.538 102.488 190.223 98.9447 194.769 98.9447C199.315 98.9447 203 102.488 203 106.859Z" fill="#004211"/>
<path d="M198.568 146.432V152.131H153.613V146.432H198.568Z" fill="#004211"/>
<path d="M182.106 138.834H175.141V90.0804H182.106V138.834Z" fill="#004211"/>
<path d="M198.568 148.332H190.97V97.0452H198.568V148.332Z" fill="#004211"/>
<path d="M151.714 138.834V131.869H181.472V138.834H151.714Z" fill="#004211"/>
<path d="M77 16H82.0653V152.131H77V16Z" fill="#004211"/>
<path d="M77 16H82.0653V152.131H77V16Z" fill="#004211"/>
<path d="M77 16H82.0653V152.131H77V16Z" fill="#004211"/>
<path d="M77 16H82.0653V152.131H77V16Z" fill="#004211"/>
<path d="M77 16H82.0653V152.131H77V16Z" fill="#004211"/>
<path d="M77 16H82.0653V152.131H77V16Z" fill="#004211"/>
<path d="M77 16H82.0653V152.131H77V16Z" fill="#004211"/>
<path d="M77 16H82.0653V152.131H77V16Z" fill="#004211"/>
<path d="M149.814 16H154.879V152.131H149.814V16Z" fill="#004211"/>
<path d="M149.814 16H154.879V152.131H149.814V16Z" fill="#004211"/>
<path d="M149.814 16H154.879V152.131H149.814V16Z" fill="#004211"/>
<path d="M149.814 16H154.879V152.131H149.814V16Z" fill="#004211"/>
<path d="M149.814 16H154.879V152.131H149.814V16Z" fill="#004211"/>
<path d="M149.814 16H154.879V152.131H149.814V16Z" fill="#004211"/>
<path d="M149.814 16H154.879V152.131H149.814V16Z" fill="#004211"/>
<path d="M149.814 16H154.879V152.131H149.814V16Z" fill="#004211"/>
<path d="M154.879 16V21.0653H77V16H154.879Z" fill="#004211"/>
<path d="M154.879 16V21.0653H77V16H154.879Z" fill="#004211"/>
<path d="M154.879 16V21.0653H77V16H154.879Z" fill="#004211"/>
<path d="M154.879 16V21.0653H77V16H154.879Z" fill="#004211"/>
<path d="M154.879 16V21.0653H77V16H154.879Z" fill="#004211"/>
<path d="M154.879 16V21.0653H77V16H154.879Z" fill="#004211"/>
<path d="M154.879 16V21.0653H77V16H154.879Z" fill="#004211"/>
<path d="M154.879 16V21.0653H77V16H154.879Z" fill="#004211"/>
<path d="M154.879 147.065V152.131H77V147.065H154.879Z" fill="#004211"/>
<path d="M154.879 147.065V152.131H77V147.065H154.879Z" fill="#004211"/>
<path d="M154.879 147.065V152.131H77V147.065H154.879Z" fill="#004211"/>
<path d="M154.879 147.065V152.131H77V147.065H154.879Z" fill="#004211"/>
<path d="M154.879 147.065V152.131H77V147.065H154.879Z" fill="#004211"/>
<path d="M154.879 147.065V152.131H77V147.065H154.879Z" fill="#004211"/>
<path d="M154.879 147.065V152.131H77V147.065H154.879Z" fill="#004211"/>
<path d="M154.879 147.065V152.131H77V147.065H154.879Z" fill="#004211"/>
</svg>
