<svg width="248" height="167" viewBox="0 0 248 167" fill="none" xmlns="http://www.w3.org/2000/svg">
<rect x="2.5" y="2.5" width="243" height="162" rx="17.5" stroke="#004211" stroke-width="5"/>
<path d="M57.5153 26.5153H189.83V104.463H57.5153V26.5153Z" fill="#292E54"/>
<path d="M118.432 114.943H128.913V137.869H118.432V114.943Z" fill="#004211"/>
<path d="M101.074 131.974H115.812V140.489H131.533V131.974H147.253L157.406 152.934H90.9214L101.074 131.974Z" fill="#004211"/>
<path d="M49 18H54.2402V112.978H49V18Z" fill="#004211"/>
<path d="M193.76 18H199V112.978H193.76V18Z" fill="#004211"/>
<path d="M197.035 18V23.2402H51.6201V18H197.035Z" fill="#004211"/>
<path d="M197.035 107.738V112.978H51.6201V107.738H197.035Z" fill="#004211"/>
<path d="M86.3782 44.6568H99.7092C101.596 44.6568 103.105 44.6987 104.237 44.7825C105.41 44.8664 106.647 45.055 107.947 45.3485C109.288 45.6419 110.357 46.0821 111.154 46.669C111.992 47.2559 112.705 48.0524 113.292 49.0585C113.837 50.0227 114.109 51.2384 114.109 52.7057V61.1948C114.109 64.5904 112.789 67.0428 110.148 68.552C107.548 70.0192 103.692 70.7528 98.5773 70.7528H92.4777V85.4672H86.3782V44.6568ZM99.3948 66.917C102.036 66.917 104.153 66.4349 105.746 65.4707C107.339 64.5065 108.135 62.9764 108.135 60.8803V53.4603C108.135 52.3284 107.842 51.4061 107.255 50.6934C106.668 49.9389 105.83 49.4148 104.74 49.1214C103.692 48.8699 102.811 48.7022 102.099 48.6183C101.386 48.5345 100.443 48.4926 99.269 48.4926H92.4148V66.917H99.3948Z" fill="white"/>
<path d="M144.564 46.1031C156.176 46.1031 161.919 50.0017 161.793 57.7991L161.668 70.1869C161.793 73.876 160.41 76.6428 157.517 78.4873C154.667 80.3319 150.349 81.2541 144.564 81.2541V86.7249H138.464V81.2541C126.894 81.2541 121.109 77.5651 121.109 70.1869V57.7991C121.109 50.0017 126.894 46.1031 138.464 46.1031V41.5127H144.564V46.1031ZM126.957 70.124C126.957 74.8192 130.793 77.1668 138.464 77.1668V50.0646C134.775 50.0646 131.924 50.6306 129.912 51.7624C127.942 52.8943 126.957 54.8437 126.957 57.6105V70.124ZM144.564 77.1668C152.235 77.1668 156.071 74.8192 156.071 70.124L156.008 57.6105C156.05 54.8437 155.065 52.8943 153.053 51.7624C151.083 50.6306 148.253 50.0646 144.564 50.0646V77.1668Z" fill="white"/>
</svg>
