<svg width="248" height="167" viewBox="0 0 248 167" fill="none" xmlns="http://www.w3.org/2000/svg">
<rect x="2.5" y="2.5" width="243" height="162" rx="17.5" fill="white" stroke="#004211" stroke-width="5"/>
<path d="M67.7363 26H194.473V106.367H67.7363V26Z" fill="#004211"/>
<path d="M74.9309 33.2054H187.279V66.1837L186.725 99.162H74.9309V33.2054Z" fill="#292E54"/>
<path d="M126.401 108.03H135.256V127.429H126.401V108.03Z" fill="#004211"/>
<path d="M112.011 122.441H123.91V129.646H137.469V122.441H150.475L159.33 140.177H103.71L112.011 122.441Z" fill="#004211"/>
<path d="M71.6103 30.4341H74.9309V100.825H71.6103V30.4341Z" fill="white"/>
<path d="M71.6103 30.4341H74.9309V100.825H71.6103V30.4341Z" fill="white"/>
<path d="M71.6103 30.4341H74.9309V100.825H71.6103V30.4341Z" fill="white"/>
<path d="M186.725 30.4341H190.599V100.825L186.725 100.548V30.4341Z" fill="white"/>
<path d="M186.725 30.4341H190.599V100.825L186.725 100.548V30.4341Z" fill="white"/>
<path d="M186.725 30.4341H190.599V100.825L186.725 100.548V30.4341Z" fill="white"/>
<path d="M190.599 30.4341V33.2054H73.5474L73.2706 30.4341H190.599Z" fill="white"/>
<path d="M190.599 30.4341V33.2054H73.5474L73.2706 30.4341H190.599Z" fill="white"/>
<path d="M190.599 30.4341V33.2054H73.5474L73.2706 30.4341H190.599Z" fill="white"/>
<path d="M190.599 97.4993V100.825H73.2706V97.4993H190.599Z" fill="white"/>
<path d="M190.599 97.4993V100.825H73.2706V97.4993H190.599Z" fill="white"/>
<path d="M190.599 97.4993V100.825H73.2706V97.4993H190.599Z" fill="white"/>
<path d="M112.011 122.441H123.91V129.646H137.469V122.441H150.475L159.33 140.177H103.71L112.011 122.441Z" fill="#004211"/>
<path d="M75.3915 33.6686H186.818V97.5737H75.3915V33.6686Z" fill="#292E54"/>
<path d="M183.007 51.1523H229.134V137.149H183.007V51.1523Z" fill="white"/>
<path d="M218.045 108.362C218.045 114.785 212.689 119.992 206.081 119.992C199.474 119.992 194.118 114.785 194.118 108.362C194.118 101.938 199.474 96.7313 206.081 96.7313C212.689 96.7313 218.045 101.938 218.045 108.362Z" fill="#004211"/>
<path d="M213.741 108.532C213.741 112.745 210.312 116.159 206.081 116.159C201.851 116.159 198.422 112.745 198.422 108.532C198.422 104.32 201.851 100.906 206.081 100.906C210.312 100.906 213.741 104.32 213.741 108.532Z" fill="white"/>
<path d="M204.549 102.649V95.2404H209.364V102.649H204.549Z" fill="white"/>
<path d="M204.549 102.649V95.2404H209.364V102.649H204.549Z" fill="white"/>
<path d="M204.549 102.649V95.2404H209.364V102.649H204.549Z" fill="white"/>
<path d="M204.549 102.649V95.2404H209.364V102.649H204.549Z" fill="white"/>
<path d="M204.549 102.649V95.2404H209.364V102.649H204.549Z" fill="white"/>
<path d="M204.549 102.649V95.2404H209.364V102.649H204.549Z" fill="white"/>
<path d="M204.549 102.649V95.2404H209.364V102.649H204.549Z" fill="white"/>
<path d="M204.549 102.649V95.2404H209.364V102.649H204.549Z" fill="white"/>
<path d="M204.549 102.649V95.2404H209.364V102.649H204.549Z" fill="white"/>
<path d="M202.799 102.649V95.2404H207.613V102.649H202.799Z" fill="white"/>
<path d="M202.799 102.649V95.2404H207.613V102.649H202.799Z" fill="white"/>
<path d="M202.799 102.649V95.2404H207.613V102.649H202.799Z" fill="white"/>
<path d="M202.799 102.649V95.2404H207.613V102.649H202.799Z" fill="white"/>
<path d="M202.799 102.649V95.2404H207.613V102.649H202.799Z" fill="white"/>
<path d="M202.799 102.649V95.2404H207.613V102.649H202.799Z" fill="white"/>
<path d="M202.799 102.649V95.2404H207.613V102.649H202.799Z" fill="white"/>
<path d="M202.799 102.649V95.2404H207.613V102.649H202.799Z" fill="white"/>
<path d="M202.799 102.649V95.2404H207.613V102.649H202.799Z" fill="white"/>
<path d="M203.674 102.649V95.2404H208.489V102.649H203.674Z" fill="#004211"/>
<path d="M233 137.078V141H179.601V137.078H233Z" fill="#004211"/>
<path d="M233 137.078V141H179.601V137.078H233Z" fill="#004211"/>
<path d="M233 137.078V141H179.601V137.078H233Z" fill="#004211"/>
<path d="M232.562 47.3017V51.224H179.163V47.3017H232.562Z" fill="#004211"/>
<path d="M232.562 47.3017V51.224H179.163V47.3017H232.562Z" fill="#004211"/>
<path d="M232.562 47.3017V51.224H179.163V47.3017H232.562Z" fill="#004211"/>
<path d="M183.102 141H179.163V47.3017H183.102V141Z" fill="#004211"/>
<path d="M183.102 141H179.163V47.3017H183.102V141Z" fill="#004211"/>
<path d="M183.102 141H179.163V47.3017H183.102V141Z" fill="#004211"/>
<path d="M233 141H229.061V47.3017H233V141Z" fill="#004211"/>
<path d="M233 141H229.061V47.3017H233V141Z" fill="#004211"/>
<path d="M233 141H229.061V47.3017H233V141Z" fill="#004211"/>
<path d="M224.246 85.6526H187.917V73.0143H224.246V85.6526Z" fill="#004211"/>
<path d="M224.246 85.6526H187.917V73.0143H224.246V85.6526Z" fill="#004211"/>
<path d="M224.246 85.6526H187.917V73.0143H224.246V85.6526Z" fill="#004211"/>
<path d="M224.246 71.271H187.917V60.8117H224.246V71.271Z" fill="#004211"/>
<path d="M224.246 71.271H187.917V60.8117H224.246V71.271Z" fill="#004211"/>
<path d="M224.246 71.271H187.917V60.8117H224.246V71.271Z" fill="#004211"/>
<path d="M38.4462 90.7572V102.933H25.6574L38.4462 90.7572Z" fill="#292E54"/>
<path d="M39.1566 103.649V90.7572H64.7342V116.541H25.6573V103.649H39.1566Z" fill="#292E54"/>
<path d="M15 114.393H24.9468V116.541H15V114.393Z" fill="#004211"/>
<path d="M15 114.393H24.9468V116.541H15V114.393Z" fill="#004211"/>
<path d="M65.4447 114.393H75.3915V116.541H65.4447V114.393Z" fill="#004211"/>
<path d="M65.4447 114.393H75.3915V116.541H65.4447V114.393Z" fill="#004211"/>
<path d="M15 117.974H75.3915V140.177H72.5496V127.285H18.5524V140.177H15V117.974Z" fill="#004211"/>
<path d="M19.9734 128.717H71.1286V140.177H19.9734V128.717Z" fill="#004211"/>
</svg>
