<svg width="286" height="151" viewBox="0 0 286 151" fill="none" xmlns="http://www.w3.org/2000/svg">
<path d="M69.1861 0H235.456V105.526H69.1861V0Z" fill="#004211"/>
<path d="M78.625 9.46094H226.017V52.7629L225.291 96.0649H78.625V9.46094Z" fill="#292E54"/>
<path d="M146.149 107.709H157.767V133.181H146.149V107.709Z" fill="#004211"/>
<path d="M127.272 126.631H142.882V136.092H160.671V126.631H177.733L189.351 149.92H116.381L127.272 126.631Z" fill="#004211"/>
<path d="M74.2686 5.82212H78.625V98.2482H74.2686V5.82212Z" fill="white"/>
<path d="M74.2686 5.82212H78.625V98.2482H74.2686V5.82212Z" fill="white"/>
<path d="M74.2686 5.82212H78.625V98.2482H74.2686V5.82212Z" fill="white"/>
<path d="M225.291 5.82212H230.373V98.2482L225.291 97.8843V5.82212Z" fill="white"/>
<path d="M225.291 5.82212H230.373V98.2482L225.291 97.8843V5.82212Z" fill="white"/>
<path d="M225.291 5.82212H230.373V98.2482L225.291 97.8843V5.82212Z" fill="white"/>
<path d="M230.373 5.82212V9.46094H76.8098L76.4468 5.82212H230.373Z" fill="white"/>
<path d="M230.373 5.82212V9.46094H76.8098L76.4468 5.82212H230.373Z" fill="white"/>
<path d="M230.373 5.82212V9.46094H76.8098L76.4468 5.82212H230.373Z" fill="white"/>
<path d="M230.373 93.8816V98.2482H76.4468V93.8816H230.373Z" fill="white"/>
<path d="M230.373 93.8816V98.2482H76.4468V93.8816H230.373Z" fill="white"/>
<path d="M230.373 93.8816V98.2482H76.4468V93.8816H230.373Z" fill="white"/>
<path d="M127.272 126.631H142.882V136.092H160.671V126.631H177.733L189.351 149.92H116.381L127.272 126.631Z" fill="#004211"/>
<path d="M79.2292 10.0692H225.413V93.9794H79.2292V10.0692Z" fill="#292E54"/>
<path d="M220.413 33.0261H280.928V145.944H220.413V33.0261Z" fill="white"/>
<path d="M266.38 108.145C266.38 116.579 259.353 123.416 250.685 123.416C242.016 123.416 234.989 116.579 234.989 108.145C234.989 99.7105 242.016 92.8733 250.685 92.8733C259.353 92.8733 266.38 99.7105 266.38 108.145Z" fill="#004211"/>
<path d="M260.734 108.369C260.734 113.899 256.235 118.383 250.685 118.383C245.135 118.383 240.636 113.899 240.636 108.369C240.636 102.838 245.135 98.3546 250.685 98.3546C256.235 98.3546 260.734 102.838 260.734 108.369Z" fill="white"/>
<path d="M248.675 100.644V90.9156H254.992V100.644H248.675Z" fill="white"/>
<path d="M248.675 100.644V90.9156H254.992V100.644H248.675Z" fill="white"/>
<path d="M248.675 100.644V90.9156H254.992V100.644H248.675Z" fill="white"/>
<path d="M248.675 100.644V90.9156H254.992V100.644H248.675Z" fill="white"/>
<path d="M248.675 100.644V90.9156H254.992V100.644H248.675Z" fill="white"/>
<path d="M248.675 100.644V90.9156H254.992V100.644H248.675Z" fill="white"/>
<path d="M248.675 100.644V90.9156H254.992V100.644H248.675Z" fill="white"/>
<path d="M248.675 100.644V90.9156H254.992V100.644H248.675Z" fill="white"/>
<path d="M248.675 100.644V90.9156H254.992V100.644H248.675Z" fill="white"/>
<path d="M246.378 100.644V90.9156H252.695V100.644H246.378Z" fill="white"/>
<path d="M246.378 100.644V90.9156H252.695V100.644H246.378Z" fill="white"/>
<path d="M246.378 100.644V90.9156H252.695V100.644H246.378Z" fill="white"/>
<path d="M246.378 100.644V90.9156H252.695V100.644H246.378Z" fill="white"/>
<path d="M246.378 100.644V90.9156H252.695V100.644H246.378Z" fill="white"/>
<path d="M246.378 100.644V90.9156H252.695V100.644H246.378Z" fill="white"/>
<path d="M246.378 100.644V90.9156H252.695V100.644H246.378Z" fill="white"/>
<path d="M246.378 100.644V90.9156H252.695V100.644H246.378Z" fill="white"/>
<path d="M246.378 100.644V90.9156H252.695V100.644H246.378Z" fill="white"/>
<path d="M247.527 100.644V90.9156H253.843V100.644H247.527Z" fill="#004211"/>
<path d="M286 145.85V151H215.944V145.85H286Z" fill="#004211"/>
<path d="M286 145.85V151H215.944V145.85H286Z" fill="#004211"/>
<path d="M286 145.85V151H215.944V145.85H286Z" fill="#004211"/>
<path d="M285.426 27.9701V33.1201H215.37V27.9701H285.426Z" fill="#004211"/>
<path d="M285.426 27.9701V33.1201H215.37V27.9701H285.426Z" fill="#004211"/>
<path d="M285.426 27.9701V33.1201H215.37V27.9701H285.426Z" fill="#004211"/>
<path d="M220.538 151H215.37V27.9701H220.538V151Z" fill="#004211"/>
<path d="M220.538 151H215.37V27.9701H220.538V151Z" fill="#004211"/>
<path d="M220.538 151H215.37V27.9701H220.538V151Z" fill="#004211"/>
<path d="M286 151H280.832V27.9701H286V151Z" fill="#004211"/>
<path d="M286 151H280.832V27.9701H286V151Z" fill="#004211"/>
<path d="M286 151H280.832V27.9701H286V151Z" fill="#004211"/>
<path d="M274.515 78.3265H226.854V61.7318H274.515V78.3265Z" fill="#004211"/>
<path d="M274.515 78.3265H226.854V61.7318H274.515V78.3265Z" fill="#004211"/>
<path d="M274.515 78.3265H226.854V61.7318H274.515V78.3265Z" fill="#004211"/>
<path d="M274.515 59.4428H226.854V45.7093H274.515V59.4428Z" fill="#004211"/>
<path d="M274.515 59.4428H226.854V45.7093H274.515V59.4428Z" fill="#004211"/>
<path d="M274.515 59.4428H226.854V45.7093H274.515V59.4428Z" fill="#004211"/>
<path d="M30.7597 85.029V101.017H13.9817L30.7597 85.029Z" fill="#292E54"/>
<path d="M31.6917 101.957V85.029H65.2476V118.885H13.9816V101.957H31.6917Z" fill="#292E54"/>
<path d="M0 116.064H13.0495V118.885H0V116.064Z" fill="#004211"/>
<path d="M0 116.064H13.0495V118.885H0V116.064Z" fill="#004211"/>
<path d="M66.1797 116.064H79.2292V118.885H66.1797V116.064Z" fill="#004211"/>
<path d="M66.1797 116.064H79.2292V118.885H66.1797V116.064Z" fill="#004211"/>
<path d="M0 120.766H79.2292V149.92H75.5008V132.992H4.66054V149.92H0V120.766Z" fill="#004211"/>
<path d="M6.52476 134.872H73.6366V149.92H6.52476V134.872Z" fill="#004211"/>
</svg>
